<?xml version="1.0" standalone="no"?>
<!DOCTYPE svg PUBLIC "-//W3C//DTD SVG 20010904//EN"
 "http://www.w3.org/TR/2001/REC-SVG-20010904/DTD/svg10.dtd">
<svg version="1.0" xmlns="http://www.w3.org/2000/svg"
 width="512.000000pt" height="512.000000pt" viewBox="0 0 512.000000 512.000000"
 preserveAspectRatio="xMidYMid meet">
<metadata>
Created by potrace 1.14, written by Peter Selinger 2001-2017
</metadata>
<g transform="translate(0.000000,512.000000) scale(0.100000,-0.100000)"
fill="#000000" stroke="none">
<path d="M2495 4650 c-4 -6 -10 -8 -15 -5 -15 10 -21 -14 -9 -37 9 -18 9 -21
-1 -11 -14 13 -43 6 -34 -8 3 -5 11 -6 17 -3 7 4 8 3 4 -1 -10 -12 -38 -15
-31 -4 3 5 -2 9 -10 9 -10 0 -13 -7 -11 -21 4 -17 2 -19 -10 -9 -18 15 -20 24
-3 14 7 -4 8 -3 4 5 -12 18 -27 2 -21 -22 2 -12 2 -16 -1 -9 -3 6 -11 9 -16 6
-7 -4 -8 -2 -4 4 4 7 2 12 -4 12 -6 0 -8 5 -4 12 4 7 3 8 -4 4 -6 -4 -8 -14
-5 -23 4 -9 2 -14 -3 -11 -13 9 -45 -17 -48 -38 -2 -10 -8 -20 -14 -22 -7 -2
-9 5 -7 18 2 11 0 18 -6 15 -5 -4 -7 -11 -4 -16 4 -5 -4 -9 -17 -10 l-23 -1
24 -7 c13 -3 25 -14 27 -24 1 -9 -2 -15 -7 -11 -5 3 -6 11 -2 17 4 7 -1 5 -12
-3 -10 -8 -21 -14 -24 -12 -3 1 -6 -7 -6 -17 0 -11 -3 -23 -7 -27 -5 -4 -8
-12 -8 -18 0 -6 4 -5 9 2 7 11 9 10 14 -3 4 -9 3 -14 -2 -11 -5 3 -15 -2 -22
-11 -12 -15 -12 -16 5 -10 15 6 15 3 -5 -17 -23 -24 -38 -92 -17 -80 7 4 8 2
4 -5 -4 -6 -11 -9 -16 -6 -5 3 -12 0 -16 -6 -3 -6 0 -15 7 -20 9 -6 10 -9 2
-9 -6 0 -19 10 -27 22 -9 12 -16 17 -16 10 0 -6 -6 -11 -12 -10 -8 2 -13 -9
-12 -29 0 -18 -3 -30 -8 -27 -15 9 -30 -7 -19 -20 8 -9 7 -13 -3 -13 -14 0
-15 9 -1 39 4 10 11 15 16 12 5 -3 6 3 2 12 -5 14 -8 12 -20 -11 -10 -18 -20
-25 -30 -21 -14 6 -14 4 -2 -10 13 -16 12 -16 -7 -6 -12 6 -24 9 -26 6 -11
-11 -48 -12 -48 -2 0 6 -2 9 -5 6 -8 -8 6 -38 17 -38 5 0 7 4 4 8 -3 5 1 9 9
9 25 0 17 -15 -15 -25 -22 -8 -28 -15 -24 -29 5 -15 4 -16 -5 -3 -6 8 -11 11
-11 6 0 -5 -7 -3 -15 4 -11 9 -15 9 -15 1 0 -7 -4 -9 -10 -6 -5 3 -10 1 -10
-5 0 -7 6 -10 13 -7 8 3 20 1 28 -5 11 -8 11 -9 -3 -4 -10 3 -20 1 -23 -4 -3
-5 -14 -8 -25 -7 -10 1 -16 5 -14 9 3 5 10 6 15 3 5 -3 6 1 2 10 -5 13 -7 14
-14 3 -10 -15 -29 -18 -45 -6 -14 10 -13 -40 1 -62 8 -13 7 -13 -8 -1 -9 7
-15 17 -12 21 7 11 -22 6 -32 -5 -4 -4 -3 -5 3 -2 6 4 16 -6 23 -21 10 -24 10
-25 -2 -9 -17 21 -33 22 -41 1 -3 -8 -10 -13 -15 -10 -5 4 -12 0 -15 -6 -3 -7
-3 -2 0 11 4 16 3 21 -5 17 -6 -4 -11 -15 -11 -25 0 -29 -13 -33 -28 -9 -13
23 -13 23 -9 -5 4 -22 2 -25 -10 -15 -8 6 -11 18 -8 27 4 13 3 13 -8 -1 -11
-14 -16 -15 -27 -5 -10 10 -11 9 -4 -3 20 -35 11 -54 -11 -23 -11 15 -12 14
-10 -9 2 -15 7 -32 11 -39 4 -7 -3 -5 -15 4 -24 16 -56 13 -45 -5 4 -7 9 -6
14 1 5 9 10 8 18 -2 10 -12 7 -14 -15 -10 -16 2 -34 5 -40 5 -7 1 -13 5 -13
10 0 4 -5 8 -11 8 -8 0 -8 -5 1 -15 7 -8 17 -12 24 -8 7 4 6 1 -1 -9 -7 -8
-12 -17 -10 -19 1 -3 -6 4 -15 14 -10 11 -18 14 -18 8 0 -7 -4 -9 -10 -6 -6 3
-7 -1 -3 -10 5 -13 7 -14 14 -3 5 7 9 8 9 2 0 -26 -63 -63 -75 -44 -3 5 4 7
16 5 12 -2 18 -1 15 3 -4 4 -11 7 -14 7 -4 0 -12 3 -18 7 -14 9 -14 -23 0 -42
9 -13 9 -13 -5 -3 -13 11 -19 10 -33 -5 -9 -10 -13 -22 -9 -27 5 -4 2 -5 -5
-1 -10 6 -10 11 -1 22 7 9 8 14 1 14 -6 0 -20 -12 -31 -26 -12 -15 -21 -22
-21 -17 0 5 5 14 11 20 9 9 7 12 -10 10 -11 -1 -21 -6 -21 -11 0 -5 -2 -7 -5
-4 -3 3 -2 13 1 22 5 14 9 15 15 4 6 -9 9 -9 9 -1 0 19 -17 24 -30 8 -7 -8
-16 -12 -21 -9 -5 3 -9 0 -9 -7 0 -7 -3 -9 -7 -5 -4 4 3 15 16 25 17 13 19 18
7 18 -9 0 -16 -4 -16 -8 0 -11 -50 -17 -57 -6 -3 6 -1 7 5 3 8 -5 10 -1 5 10
-4 11 -8 13 -11 6 -2 -7 -9 -9 -14 -6 -6 4 -8 2 -5 -3 4 -6 0 -13 -8 -17 -16
-6 -45 18 -45 37 0 7 -5 4 -10 -5 -10 -16 -21 -17 -60 -5 -8 2 -12 2 -7 0 4
-3 4 -9 1 -14 -3 -6 -11 -5 -20 2 -8 7 -14 7 -14 1 0 -16 31 -23 46 -11 10 8
14 8 14 0 0 -6 -3 -12 -7 -12 -34 -6 -53 -5 -53 3 0 5 -4 6 -10 3 -6 -4 -7 1
-3 11 5 13 1 12 -15 -4 -28 -28 -28 -31 0 -25 15 3 10 -2 -12 -14 -19 -10 -37
-17 -40 -15 -3 3 1 7 8 9 6 3 12 9 12 15 0 7 -5 7 -13 -1 -8 -6 -17 -8 -20 -5
-4 4 -5 -3 -2 -14 3 -16 0 -19 -12 -15 -11 4 -14 2 -9 -5 4 -7 2 -12 -4 -12
-6 0 -8 -5 -4 -12 4 -6 3 -8 -4 -4 -6 3 -13 2 -17 -4 -3 -5 -15 -15 -27 -21
-16 -9 -19 -8 -12 3 6 11 5 11 -9 -1 -18 -15 -23 -26 -7 -16 6 3 10 1 10 -4 0
-6 -5 -11 -11 -11 -5 0 -8 -4 -4 -10 7 -11 -16 -50 -29 -50 -4 0 -3 6 3 13 6
8 7 18 3 22 -4 5 -1 5 7 0 9 -5 12 -4 7 3 -10 16 -29 15 -23 0 2 -7 -4 -24
-13 -38 -10 -14 -19 -29 -21 -35 -2 -5 -7 -9 -10 -8 -3 1 -6 -4 -6 -12 0 -8 4
-12 9 -9 10 6 10 6 -1 -34 -8 -25 -7 -34 4 -38 7 -3 16 -13 19 -21 6 -13 4
-14 -9 -3 -13 11 -18 11 -28 0 -7 -7 -7 -10 -1 -7 6 4 16 -5 23 -20 10 -22 9
-28 -9 -45 -28 -26 -25 -32 8 -11 l27 17 -30 -34 c-16 -19 -23 -29 -14 -22 9
6 20 8 24 4 5 -4 5 -1 1 5 -5 9 -2 11 9 6 9 -3 13 -9 8 -12 -10 -8 -12 -61 -1
-55 4 3 8 -2 8 -10 0 -8 4 -17 9 -21 6 -3 8 3 6 13 -2 11 3 19 11 19 8 0 14
-4 14 -9 0 -4 -6 -8 -12 -8 -9 0 -8 -4 2 -10 10 -6 11 -10 3 -10 -7 0 -13 -7
-13 -16 0 -12 3 -14 13 -6 9 8 17 8 27 0 12 -8 12 -9 -3 -4 -19 6 -21 -2 -7
-24 6 -9 5 -17 -3 -23 -12 -9 3 -5 40 10 13 5 15 3 9 -12 -4 -11 -2 -22 6 -27
10 -6 9 -8 -3 -8 -24 0 -30 11 -17 29 10 13 10 14 -2 4 -21 -19 -20 -39 3 -40
11 -1 24 -8 28 -15 7 -10 9 -10 9 0 0 9 7 8 25 -4 14 -9 22 -21 18 -27 -3 -5
-1 -7 5 -3 5 3 12 3 15 -1 2 -5 3 -3 2 2 -2 6 9 19 24 29 l26 20 -20 -23 c-15
-18 -16 -22 -5 -21 29 4 39 0 34 -15 -5 -11 -2 -13 10 -9 9 3 14 9 11 13 -2 4
2 8 10 8 13 0 12 -4 -2 -19 -9 -10 -11 -18 -5 -18 7 0 17 9 24 20 7 11 16 20
21 20 4 0 0 -12 -10 -27 -9 -16 -13 -25 -8 -21 4 4 14 3 21 -3 10 -8 11 -5 7
12 -6 20 -5 21 9 9 9 -8 15 -19 13 -25 -1 -5 0 -6 3 -2 2 4 11 2 20 -5 15 -12
16 -11 2 5 -13 17 -12 19 5 16 20 -4 69 23 60 32 -2 3 4 5 15 5 10 0 17 -3 14
-7 -2 -4 3 -10 12 -13 13 -5 15 -2 11 14 -3 11 -1 18 4 14 14 -8 11 -25 -8
-46 -16 -17 -15 -17 16 -2 17 9 28 20 25 26 -4 7 -2 8 5 4 6 -4 9 -11 6 -16
-2 -4 4 -19 15 -32 11 -14 16 -28 13 -32 -3 -3 -1 -6 5 -6 17 0 15 27 -3 34
-8 3 -15 11 -15 18 0 9 3 9 11 -2 8 -11 12 -12 16 -3 3 10 8 9 20 -2 8 -8 20
-12 26 -8 7 3 9 3 6 -1 -4 -4 3 -17 15 -30 16 -17 25 -20 36 -12 13 10 13 9 2
-6 -11 -14 -18 -15 -38 -6 -18 9 -21 14 -12 21 9 6 8 7 -4 3 -10 -3 -17 -1
-15 6 1 6 -4 12 -11 13 -7 2 -8 1 -2 -2 7 -3 7 -10 -2 -21 -7 -9 -8 -13 -2 -9
6 3 21 -3 32 -14 12 -10 24 -19 27 -19 22 1 25 -1 18 -12 -4 -8 4 -6 18 4 34
22 54 9 45 -28 -4 -19 -3 -24 2 -15 8 11 10 11 15 0 4 -10 6 -10 6 -1 1 6 8
12 16 12 14 0 14 -3 0 -24 -12 -18 -13 -26 -4 -32 8 -4 9 -3 5 4 -4 7 -2 12 4
12 6 0 9 4 6 9 -7 11 14 20 32 14 6 -3 12 -9 12 -15 0 -7 -5 -7 -13 1 -10 8
-14 7 -14 -2 0 -7 10 -13 23 -13 14 0 20 5 17 13 -3 7 -1 13 4 13 5 0 9 -9 10
-20 1 -12 -4 -20 -14 -20 -9 0 -14 -3 -10 -6 12 -13 46 7 41 24 -5 14 -4 15 4
2 8 -10 7 -19 -1 -29 -8 -10 -8 -12 -1 -8 14 8 47 -26 37 -38 -5 -4 -2 -4 6 0
11 6 13 4 7 -11 -6 -15 -5 -16 5 -7 10 10 8 17 -9 36 -23 24 -29 47 -13 47 5
0 8 -8 7 -17 0 -11 6 -17 16 -17 10 1 16 -2 13 -6 -3 -5 -1 -11 5 -15 5 -3 10
-1 10 6 0 7 7 4 16 -7 11 -13 17 -15 20 -6 3 6 10 12 16 12 6 0 3 -9 -6 -19
-10 -11 -16 -26 -13 -33 3 -8 6 -6 6 6 1 17 3 17 25 3 18 -12 26 -13 37 -4 11
10 11 9 0 -5 -7 -10 -10 -18 -7 -18 4 0 2 -9 -4 -20 -9 -16 -8 -18 5 -14 8 3
12 10 9 15 -3 5 0 9 6 9 6 0 8 5 5 11 -4 6 2 5 14 -3 12 -7 21 -17 21 -22 0
-4 -7 -3 -15 4 -9 7 -15 8 -15 2 0 -18 29 -21 40 -4 9 14 10 12 4 -8 -6 -22
-5 -23 9 -11 9 7 14 18 10 24 -3 6 -1 7 5 3 9 -5 9 -13 0 -29 -10 -19 -9 -20
4 -10 12 11 19 8 37 -11 13 -14 28 -22 35 -20 7 3 16 -8 22 -23 8 -24 11 -25
17 -10 5 12 3 16 -5 11 -7 -4 -8 -3 -4 5 11 17 29 2 23 -19 -3 -13 0 -17 10
-13 7 3 22 -2 32 -11 10 -9 21 -13 26 -9 4 5 4 2 0 -6 -6 -11 -4 -13 8 -8 9 3
19 2 22 -4 4 -5 11 -6 17 -3 7 4 8 2 4 -4 -6 -11 5 -16 26 -13 4 0 4 -7 1 -16
-5 -12 -3 -14 8 -8 12 8 12 6 0 -8 -7 -9 -9 -17 -5 -17 5 0 15 -9 22 -21 8
-12 9 -18 4 -15 -6 3 -12 3 -15 -1 -2 -5 -2 -3 -1 4 3 14 -24 38 -33 29 -3 -3
-1 -6 5 -6 7 0 12 -7 12 -15 0 -21 22 -65 33 -65 5 0 4 7 -3 15 -11 13 -10 14
5 9 14 -6 16 -4 10 7 -5 8 -4 11 0 6 17 -15 13 -36 -7 -43 -16 -5 -18 -8 -7
-15 8 -4 19 -3 26 3 15 12 14 13 19 -27 2 -16 -2 -33 -9 -37 -6 -4 -8 -10 -4
-15 5 -4 11 -3 15 2 4 6 15 16 25 24 16 13 15 9 -4 -25 l-22 -39 27 30 c21 23
25 25 16 8 -6 -13 -8 -23 -4 -23 3 0 1 -6 -5 -14 -9 -11 -9 -16 0 -22 7 -4 9
-3 5 4 -3 6 -2 13 3 17 11 6 34 -29 24 -38 -3 -3 8 -18 23 -32 23 -20 24 -24
7 -16 -16 8 -24 8 -29 -1 -4 -7 -3 -8 4 -4 7 4 12 3 12 -3 0 -5 -5 -11 -12
-13 -7 -3 -5 -7 6 -11 10 -4 15 -3 11 3 -3 6 -1 10 5 10 7 0 9 -8 5 -21 -6
-16 -4 -20 6 -14 8 5 11 5 7 0 -4 -4 -2 -15 4 -24 7 -9 -3 -2 -22 14 -19 17
-29 23 -22 14 9 -12 9 -18 -1 -29 -9 -10 -9 -11 0 -6 7 4 23 0 35 -10 14 -10
16 -14 6 -11 -9 3 -19 3 -21 -1 -2 -4 -2 0 0 8 2 10 -2 9 -12 -4 -11 -14 -12
-23 -4 -32 13 -16 2 -37 -13 -28 -7 4 -8 2 -4 -5 4 -6 12 -9 17 -6 5 4 9 2 9
-4 0 -5 -6 -12 -12 -14 -10 -4 -10 -6 0 -6 6 -1 12 -5 12 -11 0 -5 -6 -8 -12
-6 -7 1 -10 1 -5 -1 4 -3 4 -10 0 -16 -4 -7 1 -6 11 2 9 8 15 20 12 28 -3 8
-1 11 4 8 14 -9 12 9 -2 23 -9 9 -9 12 0 12 7 0 12 -5 12 -11 0 -5 5 -7 11 -3
8 5 8 1 0 -14 -16 -30 -14 -36 7 -21 15 13 16 12 3 -3 -7 -10 -17 -15 -22 -12
-13 8 -11 -10 4 -25 8 -9 8 -12 0 -7 -7 4 -14 -3 -19 -16 -4 -13 -12 -27 -18
-31 -7 -6 -4 -7 7 -3 9 3 17 1 17 -5 0 -6 8 -5 23 2 19 10 20 9 7 -2 -8 -8
-20 -21 -27 -29 -11 -13 -12 -13 -7 3 4 12 1 17 -12 17 -16 0 -17 -2 -4 -10 8
-5 11 -10 5 -10 -5 0 -4 -5 3 -12 9 -9 15 -9 24 0 15 15 28 15 28 1 0 -5 -4
-8 -9 -4 -12 7 -24 -12 -27 -42 -2 -20 0 -22 19 -12 21 10 21 9 3 -5 -15 -12
-23 -13 -33 -4 -7 6 -16 8 -20 4 -3 -3 -1 -6 5 -6 7 0 12 -7 12 -15 0 -8 -5
-15 -12 -15 -6 0 -8 -3 -5 -6 4 -4 12 -2 20 4 9 8 17 8 27 0 12 -8 12 -9 -2
-4 -13 4 -18 0 -18 -15 0 -11 -4 -18 -9 -14 -6 3 -8 -4 -6 -15 2 -11 -1 -20
-7 -20 -6 0 -9 -2 -6 -5 3 -3 13 -2 22 1 14 5 15 9 4 15 -10 7 -9 9 5 9 11 0
15 4 11 12 -4 7 -3 8 4 4 16 -10 3 -34 -27 -51 l-26 -15 28 4 c15 3 25 1 22
-5 -6 -8 8 -13 28 -10 5 1 6 -3 2 -9 -3 -6 -11 -7 -17 -4 -6 4 -22 8 -35 10
-21 2 -22 0 -11 -14 20 -27 22 -28 15 -9 -4 11 -3 16 4 12 5 -4 7 -16 3 -27
-5 -15 -3 -19 7 -13 8 5 11 5 7 0 -4 -4 -2 -15 5 -24 10 -14 10 -14 -4 -4 -9
7 -20 9 -24 5 -5 -4 -5 -2 -1 5 3 6 2 14 -3 18 -6 3 -8 -4 -6 -16 3 -13 -1
-29 -8 -38 -9 -12 -9 -13 1 -7 6 4 12 3 12 -3 0 -5 -6 -12 -12 -14 -10 -4 -10
-6 0 -6 7 -1 10 -6 6 -13 -4 -7 -3 -8 4 -4 7 4 12 3 12 -3 0 -5 9 -8 20 -6 11
2 22 -1 26 -6 3 -5 0 -8 -8 -7 -7 2 -12 -3 -10 -11 2 -11 0 -12 -11 -3 -8 7
-18 8 -22 4 -5 -4 -5 -1 0 7 6 10 4 12 -6 5 -8 -5 -17 -9 -21 -9 -3 0 -10 -4
-15 -8 -4 -5 -1 -7 7 -5 9 2 14 -3 12 -12 -3 -12 -1 -13 9 -2 18 17 34 15 20
-2 -10 -11 -8 -17 6 -26 16 -9 15 -10 -6 -4 -16 4 -21 3 -17 -5 4 -6 2 -11 -4
-11 -6 0 -10 -6 -9 -12 3 -28 -1 -39 -13 -32 -9 6 -9 3 0 -9 12 -14 12 -18 0
-29 -16 -15 -42 -22 -34 -10 5 9 -42 37 -57 34 -4 -1 0 9 9 23 13 20 14 29 5
38 -10 9 -11 8 -6 -4 3 -9 -2 -22 -11 -30 -16 -12 -17 -12 -12 2 3 9 3 21 -2
28 -5 10 -9 9 -13 -4 -5 -10 -3 -14 5 -9 7 4 8 3 4 -4 -4 -6 -13 -9 -22 -5
-11 4 -12 8 -3 19 7 8 9 17 5 21 -3 3 -6 2 -6 -4 0 -6 -8 -13 -17 -16 -10 -2
-27 -8 -38 -12 -16 -5 -17 -5 -5 4 13 9 13 11 0 12 -8 1 -19 3 -25 4 -5 2 -14
3 -19 4 -5 0 -2 9 5 18 12 14 12 16 -2 11 -9 -4 -16 -1 -16 7 0 10 6 11 24 2
15 -6 19 -13 12 -17 -7 -5 -5 -9 6 -14 9 -3 22 -3 27 1 7 3 8 1 4 -5 -4 -7 -3
-12 3 -12 5 0 9 9 8 20 -1 13 -5 16 -11 10 -16 -16 -30 -12 -16 5 7 8 11 15 9
16 -2 0 -15 2 -28 3 -14 2 -27 8 -29 14 -2 7 -8 12 -13 12 -6 0 -7 -5 -4 -10
3 -5 2 -10 -4 -10 -5 0 -8 -9 -6 -20 2 -11 0 -18 -4 -16 -10 7 -8 47 3 65 7
10 5 12 -3 7 -7 -5 -16 -18 -21 -30 -7 -17 -9 -17 -9 -3 -1 9 -6 17 -12 17 -5
0 -7 4 -4 10 3 6 -1 7 -9 4 -11 -4 -19 2 -25 17 -5 13 -10 18 -10 10 -1 -8 8
-24 19 -36 16 -17 17 -22 6 -22 -8 0 -14 5 -13 11 1 6 -4 10 -11 8 -8 -1 -11
2 -8 7 3 5 -1 12 -10 15 -15 6 -15 8 0 24 9 10 16 22 16 27 0 5 -6 0 -14 -10
-13 -18 -13 -18 -24 1 -6 10 -12 14 -12 7 0 -7 -7 -10 -16 -6 -13 5 -13 8 -2
15 9 7 8 8 -6 4 -11 -4 -22 -2 -26 4 -4 7 -15 8 -31 2 -13 -5 -33 -6 -44 -1
-16 6 -17 8 -3 8 11 1 16 8 13 21 -7 35 -14 39 -42 25 -29 -15 -55 -7 -72 23
-10 16 -12 15 -15 -10 0 -6 -7 -12 -14 -14 -7 -1 -8 0 -3 2 5 3 3 14 -6 24 -9
10 -21 16 -26 13 -6 -3 -7 -1 -3 5 4 7 3 12 -3 12 -5 0 -11 -6 -14 -12 -3 -7
-4 -3 -4 9 1 18 4 20 22 11 11 -6 25 -18 32 -27 11 -15 12 -15 13 0 0 9 -13
22 -30 29 -16 7 -27 16 -24 21 3 5 -3 6 -12 2 -13 -5 -15 -3 -9 7 5 8 4 11 -3
6 -6 -4 -9 -13 -5 -21 3 -8 0 -15 -7 -15 -6 0 -9 4 -5 9 3 5 1 12 -5 16 -5 3
-10 0 -10 -7 0 -8 -5 -6 -11 5 -6 10 -15 14 -22 10 -7 -4 -6 1 2 11 13 15 12
18 -9 23 -22 6 -22 7 -5 13 13 5 20 17 21 38 1 17 -2 31 -5 30 -19 -2 -24 4
-11 13 13 9 12 10 -2 5 -10 -3 -26 -9 -35 -12 -14 -4 -15 -3 -5 4 11 7 11 10
-2 15 -9 4 -16 11 -16 17 0 6 7 4 16 -5 9 -9 19 -13 23 -9 3 4 0 9 -6 11 -7 3
-13 9 -13 14 0 6 4 7 10 4 6 -3 7 1 3 10 -5 13 -7 14 -14 3 -6 -8 -9 -2 -9 21
0 25 -4 32 -15 27 -8 -3 -19 2 -24 12 -6 9 -11 12 -11 6 0 -5 5 -15 12 -22 9
-9 9 -15 -1 -25 -10 -10 -11 -8 -5 7 4 12 4 17 -2 13 -6 -3 -11 8 -12 24 -1
17 3 29 10 29 6 0 9 2 6 5 -9 10 -38 -7 -31 -18 3 -6 1 -7 -5 -3 -8 5 -8 15
-2 32 7 17 7 23 0 19 -6 -3 -10 0 -10 7 0 10 -2 10 -9 -1 -5 -8 -11 -9 -15 -3
-3 6 -15 8 -26 5 -11 -3 -17 -10 -13 -16 3 -5 2 -7 -4 -4 -6 4 -9 18 -8 32 4
31 -9 40 -26 18 -12 -14 -12 -16 0 -8 10 6 12 4 6 -5 -6 -9 -4 -11 6 -5 11 6
12 5 1 -6 -10 -11 -15 -10 -28 9 -8 12 -20 22 -26 22 -6 0 -3 -10 8 -22 10
-13 12 -17 4 -10 -18 15 -34 16 -24 0 4 -7 3 -8 -4 -4 -17 10 5 49 24 42 8 -3
14 -1 14 4 0 6 -9 10 -19 10 -11 0 -22 6 -24 13 -4 9 -6 8 -6 -2 -1 -10 -4
-11 -14 -2 -10 8 -14 7 -14 -3 0 -8 8 -13 18 -11 13 3 16 -1 12 -12 -4 -10 -8
-11 -13 -3 -9 15 -21 15 -30 0 -5 -9 -9 -9 -14 -1 -4 6 -2 11 3 11 6 0 11 8
10 18 0 10 -3 12 -6 5 -6 -17 -30 -17 -36 0 -4 9 -6 9 -6 0 -1 -6 4 -15 9 -18
6 -3 10 -11 10 -18 0 -6 -6 -3 -13 8 -9 12 -16 14 -21 7 -9 -15 -58 7 -49 22
3 6 2 7 -2 3 -13 -11 -15 -38 -3 -31 7 5 8 2 3 -6 -6 -10 -4 -12 8 -7 9 3 19
2 21 -2 3 -5 -5 -7 -17 -6 -12 1 -27 3 -34 4 -7 0 -10 8 -6 18 4 10 2 14 -4
10 -17 -11 -23 -46 -7 -40 8 3 14 1 14 -4 0 -5 -9 -9 -21 -10 -13 -1 -19 3
-16 11 3 7 1 19 -5 27 -8 11 -9 10 -4 -5 5 -13 2 -17 -9 -13 -8 4 -17 1 -21
-5 -4 -6 -3 -8 3 -5 6 4 14 -1 17 -10 4 -10 4 -14 0 -11 -4 4 -16 1 -26 -7
-20 -13 -52 -10 -44 4 3 4 -4 7 -15 8 -16 2 -15 -2 8 -21 20 -17 23 -25 13
-31 -9 -6 -11 -4 -5 5 5 8 3 11 -6 8 -8 -3 -13 -11 -11 -18 4 -17 -18 -41 -31
-33 -6 4 -8 0 -4 -10 3 -9 3 -16 -1 -16 -18 3 -22 -2 -13 -19 7 -14 6 -19 -3
-19 -8 0 -12 10 -10 25 3 27 18 47 36 47 6 0 13 6 16 14 3 9 0 11 -9 6 -8 -5
-6 1 4 12 16 18 16 21 2 27 -9 3 -13 2 -10 -4 9 -15 -34 -72 -48 -64 -7 4 -9
4 -5 -1 4 -4 3 -17 -3 -28 -9 -15 -8 -18 3 -12 7 3 5 0 -5 -9 -11 -8 -25 -12
-32 -10 -7 3 -16 1 -20 -5 -3 -6 0 -9 8 -5 8 3 14 -2 14 -11 0 -8 -10 -16 -21
-16 -15 -1 -13 -4 9 -9 23 -6 25 -8 8 -9 -22 -1 -24 -13 -7 -55 4 -12 4 -17
-2 -13 -6 3 -16 1 -24 -5 -12 -8 -12 -9 2 -4 11 3 22 -2 28 -15 8 -15 8 -19
-2 -17 -14 3 -14 -5 -3 -34 4 -11 3 -18 -5 -18 -6 0 -9 4 -6 8 3 5 -1 9 -8 9
-7 0 -13 -6 -13 -13 0 -7 4 -11 8 -8 4 2 10 0 14 -6 4 -6 10 -8 14 -6 4 3 8
-1 8 -8 0 -7 -6 -13 -13 -13 -7 0 -10 5 -7 10 3 6 1 7 -5 3 -6 -4 -9 -13 -6
-21 4 -8 10 -13 14 -10 13 8 18 -18 9 -43 -7 -19 -5 -24 14 -31 12 -5 25 -7
30 -4 4 2 6 -1 5 -8 -2 -7 2 -13 9 -14 6 0 15 -5 20 -10 4 -6 4 -7 -1 -3 -5 4
-15 3 -23 -3 -13 -11 -14 -10 -17 13 -2 18 -49 15 -54 -2 -3 -13 -2 -13 7 0 7
10 11 11 11 3 0 -7 6 -12 13 -10 6 1 11 -4 9 -11 -1 -8 2 -11 8 -7 5 3 10 2
10 -4 0 -5 -6 -12 -12 -14 -7 -3 2 -4 19 -3 18 2 30 0 28 -5 -3 -4 -1 -11 5
-14 6 -4 8 -16 4 -28 -6 -19 -5 -20 10 -8 19 16 22 1 4 -18 -11 -11 -9 -11 9
0 11 7 19 18 16 25 -2 6 0 15 5 18 5 3 8 -6 6 -20 -3 -32 5 -56 17 -48 8 4 13
-8 11 -27 -1 -7 36 -4 59 6 10 3 20 2 23 -4 4 -6 13 -8 21 -4 8 3 15 0 15 -7
0 -9 8 -7 23 6 22 19 22 19 4 -2 -16 -19 -52 -31 -42 -13 7 11 -24 4 -36 -8
-8 -8 -8 -13 0 -18 6 -3 10 -3 9 2 -2 4 2 8 7 8 6 0 9 -4 7 -9 -2 -5 3 -5 10
1 7 5 30 9 51 7 20 -1 37 1 37 6 0 12 29 20 35 9 4 -5 2 -8 -3 -7 -10 3 -12
-2 -12 -24 0 -8 5 -6 10 4 10 16 23 17 65 3 18 -6 18 -5 2 5 -9 6 -15 15 -12
21 9 13 -9 11 -23 -3 -8 -8 -12 -8 -12 -1 0 20 32 24 52 6 20 -18 52 -27 42
-12 -3 5 -10 7 -15 4 -22 -14 -6 3 24 25 30 22 31 22 13 2 -25 -29 -9 -28 22
1 l25 22 -17 -27 c-11 -17 -13 -28 -7 -33 6 -3 11 -3 11 2 0 4 5 1 11 -7 9
-13 10 -12 5 3 -7 21 3 22 18 1 10 -13 12 -13 12 4 0 15 -6 19 -23 17 -29 -3
-29 -1 3 20 15 9 24 12 20 7 -3 -6 -2 -13 4 -17 6 -4 8 -10 5 -15 -3 -5 0 -12
6 -16 8 -4 9 -3 5 4 -4 7 -2 12 4 12 6 0 8 5 4 13 -5 8 -2 8 9 -2 9 -7 17 -19
17 -25 0 -6 -5 -4 -10 4 -5 8 -10 11 -10 5 0 -5 4 -16 9 -24 6 -10 11 -6 19
15 6 16 11 23 11 16 1 -7 7 -10 14 -7 6 4 3 -1 -7 -9 -11 -9 -16 -19 -13 -23
4 -4 12 -2 19 5 8 8 17 8 32 0 29 -15 29 -14 16 -38 -8 -15 -9 -25 -2 -32 7
-7 10 -4 9 8 -2 14 5 19 23 19 20 -1 25 -5 23 -23 -2 -12 2 -22 9 -22 6 0 8 3
5 7 -4 4 7 13 24 20 18 7 34 11 37 8 3 -3 -1 -5 -9 -5 -12 0 -11 -2 1 -11 12
-8 10 -9 -8 -4 -18 5 -22 3 -19 -14 2 -11 7 -24 11 -28 4 -5 6 -2 4 5 -2 8 7
18 20 23 13 5 22 5 22 -1 0 -6 -4 -10 -9 -10 -5 0 -11 -7 -15 -15 -4 -12 -2
-13 17 -2 12 6 26 17 30 22 4 6 7 1 5 -10 -2 -16 2 -20 24 -18 31 2 45 -22 20
-36 -9 -6 -12 -11 -5 -11 6 0 19 10 28 23 15 20 16 20 11 2 -5 -16 -1 -21 16
-22 12 -1 28 3 35 9 8 7 13 7 13 0 0 -5 -7 -13 -16 -16 -8 -3 -12 -11 -9 -17
5 -7 11 -7 17 -1 12 12 38 5 38 -10 0 -7 -5 -6 -14 1 -11 9 -15 8 -20 -5 -4
-10 -2 -22 4 -28 8 -8 9 -6 5 6 -9 23 11 24 23 2 8 -15 10 -15 15 0 5 11 3 15
-5 10 -7 -4 -8 -3 -4 5 12 18 27 1 21 -22 -5 -16 -4 -18 3 -8 8 11 10 11 15 0
4 -8 5 -3 3 11 -2 14 -1 19 1 12 3 -7 8 -10 13 -7 5 3 12 0 16 -6 4 -8 3 -9
-4 -5 -7 4 -12 3 -12 -3 0 -6 16 -8 38 -6 26 4 33 2 22 -5 -14 -9 -7 -14 13
-11 4 1 3 -8 -3 -20 -7 -11 -9 -23 -6 -27 3 -3 6 0 6 7 0 7 5 9 10 6 6 -4 7
-12 3 -18 -3 -7 3 -4 14 5 21 19 43 24 43 9 0 -10 26 -9 36 2 4 4 12 7 18 7 6
0 2 -7 -8 -15 -10 -8 -23 -12 -27 -9 -5 3 -9 0 -9 -6 0 -7 7 -10 15 -6 10 3
20 -5 30 -25 9 -17 21 -27 27 -23 6 4 17 -1 25 -11 7 -11 13 -13 13 -6 0 6
-13 20 -30 29 -37 21 -44 37 -22 54 10 8 13 8 9 1 -4 -6 -3 -14 3 -18 6 -4 7
-11 4 -17 -5 -8 -1 -9 10 -5 11 5 15 3 10 -5 -5 -8 -2 -9 9 -5 9 3 16 3 16 -1
-4 -22 3 -32 22 -32 13 0 18 4 13 13 -4 6 -3 8 1 4 5 -4 10 -14 11 -22 2 -11
-5 -14 -24 -10 -25 5 -25 5 -4 -4 28 -13 29 -31 2 -26 -11 2 -18 0 -15 -5 9
-15 40 -4 53 21 13 24 13 23 7 -6 -4 -16 -3 -27 1 -23 10 11 35 -12 28 -24 -4
-6 -1 -14 7 -18 10 -7 10 -11 0 -24 -7 -9 -18 -13 -24 -9 -5 3 -7 1 -3 -5 3
-6 19 -8 34 -6 22 4 25 3 15 -7 -19 -19 -16 -34 4 -18 15 12 16 12 10 -3 -4
-11 1 -22 14 -32 14 -9 16 -15 8 -18 -9 -3 -7 -7 5 -11 10 -4 15 -3 11 3 -3 6
0 10 7 10 7 1 0 8 -15 16 -16 9 -26 18 -23 21 3 3 12 1 19 -5 8 -7 17 -9 20
-5 7 6 11 -12 8 -31 -2 -11 32 -36 41 -30 4 3 5 12 2 22 -5 13 -4 14 4 3 5 -7
14 -11 19 -8 5 3 10 -5 11 -19 1 -13 -3 -24 -9 -24 -5 0 -7 -5 -3 -11 4 -8 9
-7 15 2 5 8 9 10 9 6 0 -4 10 -2 23 4 22 12 22 12 3 -10 -11 -11 -16 -24 -13
-28 4 -3 7 0 7 8 0 12 2 11 11 -1 9 -13 10 -12 5 3 -3 9 -4 17 -2 17 3 0 11 3
20 6 9 3 16 1 16 -6 0 -6 -5 -8 -11 -5 -6 4 -5 -2 3 -14 7 -12 14 -17 16 -11
2 6 9 7 14 4 7 -4 8 -2 4 5 -4 6 -12 9 -17 6 -15 -10 -10 2 8 16 12 10 15 11
9 1 -6 -9 -1 -11 18 -8 14 3 31 8 38 11 7 4 4 0 -6 -9 -10 -8 -23 -13 -27 -10
-5 3 -9 0 -9 -6 0 -8 7 -9 18 -5 38 17 103 22 110 10 5 -10 10 -9 22 3 13 14
12 15 -3 9 -9 -3 -17 -2 -17 4 0 6 12 9 27 7 17 -2 28 2 30 12 4 13 3 13 -7 0
-10 -13 -11 -13 -7 0 2 8 0 24 -5 35 -8 18 -7 17 9 -2 16 -19 20 -20 36 -8 10
7 18 16 17 20 -1 4 1 9 3 12 14 14 -1 -29 -16 -45 -9 -10 -17 -22 -17 -26 0
-4 11 6 25 21 16 19 25 23 25 13 0 -13 1 -13 10 0 5 8 10 20 10 25 0 6 -5 3
-10 -5 -7 -10 -10 -11 -10 -2 0 7 11 17 25 22 14 5 25 15 25 21 0 8 4 8 13 1
13 -11 14 -7 18 63 1 11 3 14 6 7 4 -10 8 -10 19 -1 15 13 20 34 5 25 -5 -4
-7 4 -3 16 3 12 7 17 10 10 2 -7 8 -10 13 -7 5 4 6 -1 3 -9 -3 -9 -1 -16 5
-16 6 0 10 6 8 12 -1 7 3 12 8 11 6 0 16 5 23 13 8 9 9 14 2 14 -6 0 -8 5 -5
10 4 6 11 7 17 4 7 -4 8 -2 4 5 -6 9 -11 9 -22 0 -7 -6 -11 -16 -7 -22 4 -6 0
-8 -11 -4 -11 5 -15 3 -10 -5 4 -7 3 -8 -4 -4 -16 10 -15 26 2 26 7 0 19 6 26
14 6 8 17 13 25 10 7 -3 16 0 21 7 5 8 3 10 -6 4 -9 -5 -11 -4 -6 4 6 9 11 9
22 0 12 -10 15 -10 12 2 -2 8 -12 17 -23 21 -18 6 -18 6 3 7 12 1 25 -5 28
-12 3 -8 11 -14 19 -14 12 0 12 4 -2 21 -14 16 -15 18 -2 8 9 -7 24 -9 34 -6
15 6 16 4 5 -17 -8 -16 -9 -20 -1 -13 12 11 22 45 24 81 1 12 5 19 9 17 5 -3
6 -10 3 -15 -4 -5 -1 -9 4 -9 6 0 11 -9 11 -19 0 -11 4 -22 9 -26 6 -3 5 10
-1 31 -5 20 -7 38 -4 42 3 3 6 0 6 -7 0 -7 4 -9 10 -6 6 4 7 -1 3 -11 -4 -12
-3 -15 5 -10 7 4 12 16 12 26 0 10 5 22 12 26 8 5 9 2 5 -9 -7 -20 -3 -21 24
-6 17 8 18 13 8 27 -6 9 1 4 16 -12 21 -23 26 -25 23 -10 -2 14 2 18 17 16 15
-2 17 0 6 6 -15 11 -4 21 20 17 9 -2 16 3 16 11 0 9 -4 10 -11 5 -6 -5 -14 -9
-18 -8 -4 1 -16 -6 -28 -15 -11 -10 -20 -13 -20 -8 0 6 0 13 0 17 0 4 6 8 15
10 8 2 22 4 31 6 8 2 20 10 25 18 6 10 9 10 9 2 0 -7 5 -13 11 -13 5 0 7 6 4
13 -4 6 1 3 9 -7 9 -11 16 -14 16 -7 0 7 5 9 10 6 6 -4 7 -11 4 -17 -4 -7 -2
-8 5 -4 9 6 9 11 0 22 -6 7 -15 11 -20 8 -5 -3 -9 0 -9 5 0 14 6 14 33 -1 19
-10 20 -9 9 4 -10 13 -10 17 4 22 10 4 22 2 28 -4 5 -5 15 -10 20 -10 6 0 0 7
-12 16 -18 13 -21 19 -11 30 6 8 16 14 22 14 6 0 2 -7 -9 -15 -22 -17 -12 -20
16 -5 14 8 21 6 28 -6 8 -15 10 -15 16 1 5 15 9 15 24 4 15 -12 15 -11 -1 7
-15 16 -19 17 -28 4 -9 -13 -10 -13 -6 0 2 10 17 15 44 15 23 0 45 3 49 7 3 4
-2 6 -13 4 -13 -3 -19 2 -19 14 0 10 4 17 7 14 4 -2 15 6 23 18 9 12 16 17 16
10 0 -6 5 -12 11 -12 5 0 7 5 3 12 -4 6 -3 8 4 4 6 -3 15 2 21 11 6 10 11 13
11 7 0 -18 -38 -47 -51 -38 -7 4 -10 3 -5 -4 3 -6 15 -10 26 -9 10 1 17 3 15
5 -2 2 5 12 16 23 11 11 17 25 13 32 -5 9 -4 9 5 1 10 -9 10 -17 1 -35 -11
-23 -11 -23 5 -4 9 11 21 20 28 20 6 0 13 9 16 20 4 24 31 64 31 47 0 -6 5
-12 11 -12 5 0 7 5 4 10 -3 6 -2 10 3 10 6 0 13 -7 16 -16 4 -11 10 -13 19 -6
6 5 20 8 30 7 15 -3 16 -1 6 11 -13 16 -23 19 -15 5 9 -13 -22 -7 -36 7 -9 9
-9 12 0 12 7 0 12 -5 12 -12 0 -6 10 -3 22 8 12 10 18 13 13 5 -6 -11 -4 -13
8 -8 9 3 17 1 20 -6 2 -6 7 -2 11 8 4 11 4 16 0 13 -5 -6 -34 14 -34 24 0 2
10 5 22 5 18 2 20 0 8 -8 -12 -8 -11 -9 5 -7 11 2 20 8 20 15 0 6 4 15 9 20 5
5 6 3 2 -5 -9 -15 6 -16 22 0 7 7 12 8 12 2 0 -6 -9 -15 -20 -20 -14 -7 -17
-13 -10 -24 8 -13 10 -12 10 3 0 12 6 17 18 15 9 -2 16 -10 14 -17 -1 -7 2
-10 8 -6 6 3 7 12 3 18 -11 18 -12 38 -2 31 5 -3 6 -10 3 -16 -4 -6 -1 -9 6
-6 14 4 50 -25 50 -41 0 -5 7 -15 17 -22 15 -13 15 -12 4 10 -9 15 -10 26 -3
33 7 7 10 4 9 -8 -1 -11 3 -18 9 -17 7 1 10 -7 7 -20 -2 -13 2 -9 11 11 15 31
31 46 20 18 -3 -8 2 -13 13 -13 34 0 44 -3 39 -11 -2 -4 18 -8 45 -9 27 0 49
3 49 8 0 4 -10 6 -23 5 -14 -2 -24 2 -24 10 0 9 5 10 19 3 13 -7 18 -6 18 3 0
10 2 10 9 -1 7 -11 10 -11 15 0 3 8 4 5 1 -7 -4 -14 0 -21 9 -21 9 0 12 6 8
16 -5 14 -3 14 20 -1 26 -17 26 -17 23 7 -1 14 2 25 7 25 5 0 6 5 3 10 -4 6
-11 7 -17 4 -7 -4 -8 -2 -4 5 4 6 12 9 17 6 5 -4 9 0 9 7 0 9 3 9 10 -2 9 -13
14 -8 11 12 0 3 5 5 12 4 15 -2 21 -21 6 -21 -6 0 -18 -10 -27 -23 -13 -20
-13 -22 2 -16 9 3 14 10 11 14 -3 4 7 11 21 14 20 5 25 12 21 26 -3 11 -1 18
3 15 5 -3 17 6 28 20 11 14 23 25 27 25 4 0 3 -6 -3 -13 -8 -9 -8 -17 0 -27 8
-12 9 -12 4 2 -3 10 -1 20 4 23 4 3 10 0 12 -7 3 -7 7 -5 11 6 5 11 3 15 -5
10 -8 -5 -9 -2 -5 10 6 14 3 17 -8 12 -9 -3 -13 -2 -10 4 3 6 13 10 21 10 8 0
14 5 14 10 0 6 7 10 15 10 19 0 19 9 -1 31 -12 13 -12 19 -3 25 7 4 10 3 6 -3
-7 -11 22 -28 31 -18 3 3 0 5 -6 5 -7 0 -12 5 -12 11 0 6 7 8 16 5 8 -3 12 -2
9 4 -4 6 4 15 17 20 22 10 22 10 1 6 -12 -2 -24 2 -26 9 -4 8 3 11 19 9 16 -1
22 2 17 9 -14 23 -12 39 4 33 14 -6 14 -3 -1 18 -10 15 -12 27 -6 31 13 8 13
25 -1 25 -5 0 -8 -4 -4 -9 3 -5 1 -13 -5 -16 -8 -5 -7 -12 2 -23 7 -9 8 -13 2
-9 -8 4 -11 -3 -9 -23 2 -25 0 -28 -11 -19 -8 7 -11 16 -6 23 10 14 9 47 -2
65 -6 10 -5 12 3 7 6 -4 14 0 18 11 4 10 11 21 17 25 7 5 5 8 -4 8 -13 0 -13
1 0 11 12 8 10 9 -9 4 -15 -5 -21 -3 -17 3 3 6 -5 24 -19 40 -21 25 -23 31
-10 42 12 10 13 8 10 -9 -2 -14 0 -19 7 -15 7 5 8 2 3 -6 -6 -9 -4 -11 5 -5 9
5 11 4 6 -3 -5 -8 -1 -10 10 -5 10 4 13 8 7 10 -7 3 -9 12 -6 21 4 13 3 14 -5
3 -11 -15 -21 -4 -17 22 3 15 0 15 -28 -5 l-32 -22 23 26 c19 21 20 26 8 31
-9 4 -13 15 -11 27 2 11 0 18 -6 15 -5 -4 -9 -1 -9 6 0 7 -11 10 -30 7 -23 -4
-27 -2 -19 9 6 7 16 10 22 6 6 -3 7 -1 3 6 -4 6 -12 9 -17 5 -6 -3 -19 2 -29
11 -10 9 -23 14 -29 10 -7 -3 -8 0 -5 9 3 9 9 14 13 12 4 -3 13 -1 21 4 12 7
10 9 -5 8 -11 0 -24 0 -30 2 -18 5 -36 0 -31 -8 2 -4 -3 -8 -13 -8 -13 0 -17
6 -13 19 3 13 7 15 12 7 5 -9 9 -9 14 -1 4 6 2 11 -4 11 -7 0 -10 7 -6 18 6
16 5 16 -8 -1 -11 -14 -15 -15 -19 -4 -3 8 -1 19 5 25 6 6 6 12 -1 17 -6 3
-10 1 -9 -5 2 -7 -5 -14 -15 -15 -14 -3 -17 1 -13 13 5 13 2 12 -9 -2 -8 -11
-15 -16 -15 -12 0 5 -7 2 -16 -5 -15 -12 -16 -11 -10 11 5 17 4 21 -2 11 -8
-11 -12 -10 -21 5 -6 11 -11 13 -11 6 0 -7 -5 -10 -12 -6 -7 4 -8 3 -4 -4 10
-17 -6 -15 -34 5 -24 16 -24 16 -11 0 16 -20 2 -23 -19 -4 -8 6 -1 -3 15 -21
l30 -34 -36 24 c-20 12 -34 28 -31 33 3 6 1 6 -3 2 -14 -13 -14 -36 0 -31 7 3
16 1 19 -5 9 -14 -14 -25 -26 -13 -11 11 -41 5 -33 -7 2 -4 -3 -8 -12 -8 -12
0 -11 5 7 19 13 10 21 21 18 24 -3 2 -16 -6 -29 -20 -16 -16 -31 -23 -47 -20
-19 4 -23 1 -19 -11 4 -8 2 -15 -3 -15 -6 0 -10 6 -10 13 0 8 -3 8 -9 -2 -6
-9 -6 -22 -1 -31 6 -12 5 -17 -5 -17 -8 0 -13 3 -12 6 2 6 -7 11 -18 11 -3 0
-1 -9 5 -20 6 -12 16 -18 23 -14 7 4 8 3 4 -1 -12 -14 -70 -15 -86 -2 -12 10
-12 9 -1 -10 8 -12 17 -20 20 -18 4 2 7 -2 7 -10 0 -8 -3 -13 -5 -10 -11 10
-30 -30 -21 -42 12 -13 -16 -12 -28 2 -4 4 -2 5 6 0 9 -5 12 -4 7 3 -3 6 -2
13 4 17 6 4 8 11 5 16 -4 5 -1 9 5 9 6 0 8 5 4 11 -4 8 -9 7 -15 -2 -4 -7 -6
-16 -3 -20 2 -4 -5 -14 -15 -21 -20 -14 -20 -14 -1 -28 19 -14 19 -14 -1 -28
-10 -7 -16 -18 -13 -24 4 -7 2 -8 -5 -4 -6 4 -8 12 -5 18 5 7 2 8 -5 4 -7 -5
-10 -14 -7 -22 3 -7 1 -16 -5 -19 -5 -4 -6 -12 -3 -18 4 -7 3 -8 -1 -4 -5 4
-15 -3 -22 -15 l-14 -23 7 25 6 25 -26 -24 c-14 -14 -28 -22 -31 -19 -6 5 46
44 55 41 3 -1 10 4 16 11 9 10 5 13 -20 13 -17 0 -25 -2 -18 -5 9 -3 2 -14
-20 -33 -28 -24 -31 -30 -18 -39 13 -10 13 -11 0 -7 -8 2 -24 -3 -34 -12 -11
-9 -16 -10 -12 -3 4 6 3 12 -3 12 -5 0 -16 3 -25 6 -9 3 -16 1 -16 -6 0 -6 4
-9 9 -6 5 3 12 -2 15 -11 4 -10 4 -14 0 -10 -4 4 -14 1 -22 -6 -9 -6 -13 -7
-10 -2 4 6 -1 19 -9 30 -15 19 -15 19 -8 -4 6 -18 4 -22 -6 -15 -12 6 -12 5
-1 -9 10 -12 11 -20 2 -34 -10 -16 -10 -16 -5 3 6 24 -14 37 -36 23 -8 -5 -9
-9 -4 -9 6 0 2 -7 -8 -14 -10 -8 -18 -18 -18 -23 1 -4 -5 -8 -11 -8 -7 -1 -12
-6 -11 -12 1 -6 -5 -10 -15 -8 -9 1 -24 -3 -32 -9 -13 -10 -13 -9 -1 7 8 10 9
17 3 17 -6 0 -14 -5 -17 -10 -4 -6 -11 -7 -17 -4 -6 4 -5 10 3 15 10 6 10 9 2
9 -26 0 -22 -20 9 -45 26 -21 28 -24 8 -15 -14 7 -32 19 -41 26 -13 12 -16 12
-16 -1 0 -8 4 -12 8 -10 3 3 9 -5 12 -16 4 -13 10 -18 18 -13 8 4 10 3 5 -5
-6 -9 -11 -9 -21 -1 -7 6 -15 7 -17 3 -3 -4 -3 -3 -2 4 2 6 -4 14 -13 17 -11
4 -14 2 -9 -9 3 -8 0 -14 -7 -12 -7 1 -11 -5 -9 -13 1 -8 -9 -2 -22 14 -17 20
-26 25 -31 16 -5 -9 -4 -11 3 -6 7 4 12 3 12 -3 0 -5 -5 -13 -10 -16 -8 -5 -7
-11 1 -21 10 -12 9 -13 -6 -8 -12 5 -16 4 -11 -4 3 -6 2 -13 -3 -17 -6 -3 -8
3 -6 15 2 11 0 20 -6 20 -9 0 -13 -28 -10 -60 2 -13 1 -13 -8 0 -5 8 -7 18 -5
22 3 4 -2 8 -10 8 -8 0 -17 -4 -20 -9 -7 -10 -25 -9 -43 2 -6 4 -15 2 -19 -4
-4 -7 -3 -9 4 -5 6 3 13 2 17 -4 4 -6 10 -8 14 -6 4 3 8 -1 8 -9 0 -10 -5 -11
-19 -4 -14 7 -18 6 -18 -6 0 -8 -5 -15 -11 -15 -5 0 -8 4 -5 8 2 4 0 14 -5 22
-9 13 -10 13 -8 0 3 -27 -1 -40 -11 -40 -5 0 -8 6 -6 13 1 6 1 9 -1 4 -3 -4
-8 -5 -12 -3 -4 3 -7 -4 -7 -14 0 -12 6 -17 18 -15 10 2 16 0 13 -4 -5 -10
-66 -8 -81 2 -6 3 -11 -4 -11 -16 -2 -15 0 -18 6 -8 7 11 13 11 27 1 17 -10
17 -11 1 -6 -11 3 -20 0 -24 -9 -5 -13 -7 -13 -19 2 -7 10 -14 14 -14 9 0 -6
-7 -1 -16 10 -15 18 -15 18 -5 -3 6 -12 16 -23 23 -26 7 -2 1 -4 -14 -4 -15 0
-25 3 -23 8 3 4 0 11 -6 15 -7 4 -9 3 -6 -3 4 -6 0 -16 -8 -23 -12 -10 -15
-10 -15 0 0 8 -2 11 -5 8 -3 -3 -3 -13 1 -22 6 -15 7 -15 19 0 9 14 14 14 20
4 5 -8 4 -11 -2 -7 -6 4 -14 0 -17 -9 -3 -8 -10 -13 -15 -10 -5 3 -14 -1 -21
-9 -8 -9 -18 -12 -29 -7 -19 10 -32 9 -48 -1 -7 -5 -13 -7 -14 -5 -8 32 -6 38
6 28 9 -8 15 -8 20 0 6 10 5 11 -16 14 -14 1 -28 36 -22 53 3 7 10 10 17 6 6
-3 8 -3 4 2 -4 4 -3 14 3 21 7 9 6 12 -8 10 -10 -2 -18 -8 -18 -14 0 -7 -3
-12 -7 -12 -29 0 -31 2 -15 11 23 14 22 29 -3 24 -11 -2 -22 1 -26 6 -3 5 -2
9 3 8 4 -1 10 0 13 1 21 8 39 7 34 -2 -4 -7 -2 -8 4 -4 6 4 8 14 5 22 -3 9 0
20 8 26 11 8 10 9 -3 4 -10 -3 -18 -1 -18 5 0 6 -8 5 -22 -2 -20 -10 -21 -9
-8 2 8 8 20 21 27 29 11 13 12 13 7 -3 -4 -12 -1 -17 12 -17 16 0 17 2 4 10
-8 5 -11 10 -5 10 5 0 4 5 -3 12 -9 9 -15 9 -24 0 -15 -15 -28 -15 -28 -1 0 5
4 8 9 4 12 -7 24 12 27 42 2 20 0 22 -19 12 -19 -9 -18 -7 3 10 13 11 27 19
30 19 18 -1 21 4 9 18 -10 13 -10 17 2 25 10 6 10 9 2 9 -7 0 -13 7 -13 16 0
8 -5 12 -10 9 -8 -5 -7 -11 1 -21 8 -10 8 -14 0 -14 -6 0 -11 5 -11 11 0 5 -4
8 -8 5 -5 -3 -9 1 -9 9 0 8 5 13 10 12 5 -1 12 4 15 12 3 9 0 11 -9 6 -8 -5
-11 -5 -7 0 4 4 2 15 -4 24 -7 9 3 3 22 -14 19 -16 29 -23 22 -14 -9 12 -9 18
1 29 9 10 9 11 0 6 -7 -4 -23 0 -35 10 -14 10 -16 14 -6 11 9 -3 19 -3 21 1 2
4 2 0 0 -8 -2 -10 2 -9 12 4 11 14 12 23 4 32 -13 16 -2 37 13 28 7 -4 8 -2 4
5 -4 6 -12 9 -17 6 -5 -4 -9 -2 -9 4 0 5 6 12 13 14 10 4 10 6 0 6 -7 1 -13 5
-13 11 0 5 6 8 13 6 6 -1 9 -1 4 1 -4 3 -4 10 0 16 4 7 -1 6 -11 -2 -9 -8 -15
-20 -12 -28 3 -8 1 -11 -4 -8 -14 9 -12 -9 2 -23 9 -9 9 -12 0 -12 -7 0 -12 5
-12 11 0 5 -5 7 -11 3 -8 -5 -8 -1 0 14 16 30 14 36 -6 21 -16 -13 -17 -12 -4
3 7 10 17 15 22 12 13 -8 11 10 -3 25 -9 9 -9 12 -1 7 7 -4 14 3 19 16 4 13
12 27 18 31 7 6 4 7 -6 3 -10 -3 -18 -1 -18 5 0 6 -8 5 -22 -2 -20 -10 -21 -9
-8 2 8 8 20 21 27 29 11 13 12 13 7 -2 -4 -13 -1 -18 12 -18 16 0 17 2 4 10
-8 5 -11 10 -5 10 5 0 4 5 -3 12 -9 9 -15 9 -24 0 -15 -15 -28 -15 -28 -1 0 5
4 8 9 4 12 -7 24 12 27 42 2 20 0 22 -19 12 -22 -10 -22 -10 -2 6 11 9 19 21
17 27 -2 6 3 18 10 27 22 27 16 56 -10 54 -19 -2 -20 0 -10 10 7 8 23 13 36
11 17 -2 21 1 13 10 -7 9 -7 17 2 26 9 10 9 11 0 6 -8 -4 -13 -2 -13 6 0 10
-3 9 -10 -2 -5 -8 -12 -11 -17 -6 -4 4 0 12 10 17 9 6 15 14 12 20 -4 5 1 9
11 9 13 0 14 -3 4 -15 -19 -23 -3 -18 22 7 14 14 16 19 5 15 -8 -3 -20 0 -26
7 -8 10 -4 12 19 11 32 -2 70 28 50 40 -5 3 -8 11 -5 16 4 5 0 9 -7 9 -10 0
-10 2 0 9 8 4 12 10 11 12 -2 2 2 13 8 24 10 17 14 18 25 6 11 -12 11 -13 -1
-6 -10 6 -12 4 -6 -5 6 -9 4 -11 -5 -5 -9 6 -11 4 -5 -5 6 -9 4 -11 -5 -5 -8
5 -11 4 -7 -3 9 -13 43 -8 39 7 -1 6 2 11 8 11 5 0 10 5 10 11 0 5 -4 8 -9 5
-5 -3 -11 0 -14 8 -3 8 1 17 9 20 10 4 13 2 8 -7 -5 -9 -4 -9 5 -1 10 9 10 17
1 33 -9 17 -8 25 6 39 15 14 17 14 12 1 -4 -9 -1 -16 7 -16 10 0 11 7 5 23 -6
14 -5 26 1 29 5 4 6 12 2 18 -4 7 0 6 10 -2 15 -12 21 -9 18 11 0 4 8 5 19 3
11 -2 22 0 25 6 4 5 0 9 -7 9 -8 0 -6 5 5 11 13 8 22 7 33 -1 9 -8 14 -9 14
-2 0 6 -4 14 -10 17 -5 3 -10 12 -9 18 0 9 2 9 6 0 2 -7 9 -13 14 -13 6 0 8 4
4 9 -3 6 3 8 15 6 11 -2 22 0 25 5 8 12 35 6 46 -11 7 -11 9 -11 9 4 0 10 -7
20 -16 24 -12 5 -9 10 15 25 18 12 28 25 24 31 -4 7 0 7 9 -1 14 -11 17 -10
21 3 4 11 4 11 3 -2 -1 -10 -9 -16 -17 -15 -8 2 -10 0 -6 -4 11 -11 38 -14 31
-3 -3 5 0 9 6 9 6 0 9 4 6 8 -2 4 5 9 17 9 18 2 19 0 7 -8 -13 -9 -13 -10 0
-6 8 2 15 13 14 25 0 11 4 20 10 19 6 -1 10 4 8 11 -2 10 2 10 20 1 18 -10 24
-8 40 11 10 12 16 26 13 30 -3 5 0 12 6 16 8 5 9 3 4 -6 -5 -8 -3 -11 6 -8 8
3 22 1 32 -4 12 -6 17 -5 15 4 -2 7 6 13 17 13 14 0 19 -6 17 -20 -5 -27 7
-14 13 14 2 12 0 19 -4 16 -5 -2 -14 2 -21 10 -10 12 -7 13 19 5 17 -5 29 -5
26 0 -3 5 -1 11 5 15 5 3 10 0 10 -7 0 -10 2 -10 9 1 5 8 14 10 21 6 9 -5 11
-4 6 4 -8 13 19 26 67 30 4 1 2 7 -5 15 -11 11 -15 11 -26 -3 -7 -9 -11 -11
-8 -4 4 6 0 14 -6 16 -9 4 -7 6 3 6 9 1 24 10 34 21 20 22 35 26 35 9 0 -5 -4
-8 -9 -4 -5 3 -12 1 -15 -4 -3 -5 1 -11 9 -15 8 -3 15 -2 15 3 0 13 37 20 47
10 6 -6 10 -4 10 5 0 9 -9 13 -23 11 -13 -1 -21 2 -18 7 3 5 13 7 21 4 11 -4
13 -2 9 9 -9 25 2 17 19 -12 l15 -28 -4 37 c-3 27 -1 35 9 32 7 -3 20 5 29 17
8 13 18 20 22 16 4 -3 15 -2 24 3 13 7 21 5 30 -5 10 -12 16 -13 28 -3 8 7 20
13 26 13 6 1 19 5 30 10 12 5 21 4 26 -5 4 -7 13 -9 19 -6 6 4 11 1 11 -6 0
-9 3 -9 10 2 5 8 10 11 10 5 0 -5 12 4 26 20 l26 30 -16 -32 c-18 -35 -21 -57
-6 -33 9 13 10 13 10 0 0 -13 2 -13 9 -1 8 12 12 12 24 2 10 -8 17 -9 22 -1 6
10 -1 14 -18 11 -5 -1 -6 3 -2 8 4 7 14 6 30 -1 21 -9 23 -14 12 -27 -11 -14
-10 -14 5 -2 10 7 15 17 12 22 -3 5 2 9 11 9 10 0 13 -5 9 -12 -4 -7 -4 -10 1
-6 4 4 15 2 24 -5 14 -10 14 -10 3 5 -11 14 -10 18 7 28 20 10 25 7 22 -13 -1
-5 3 -6 9 -2 8 5 7 12 -2 23 -11 13 -11 15 3 10 9 -4 16 -1 16 8 0 10 -9 8
-35 -8 -20 -12 -32 -17 -29 -11 4 6 4 13 0 16 -5 2 -2 2 5 0 7 -1 24 4 38 13
13 9 24 13 24 8 0 -4 7 1 16 12 8 10 13 13 9 7 -3 -7 -1 -21 4 -30 6 -10 11
-13 11 -6 0 7 7 10 18 7 14 -5 14 -4 2 4 -8 6 -19 8 -25 5 -5 -4 -2 3 8 14 10
12 15 23 10 25 -4 3 -2 3 6 1 8 -2 11 2 8 11 -4 10 -1 13 9 9 12 -4 12 -8 2
-22 -7 -9 -17 -19 -23 -23 -6 -5 -6 -8 2 -8 19 0 44 42 33 55 -6 8 -1 10 20 9
26 -2 28 0 19 17 -9 18 -5 23 14 20 12 -2 8 17 -5 23 -7 4 -3 4 10 2 12 -2 22
0 22 6 0 5 5 6 10 3 6 -3 10 -1 10 5 0 7 -6 10 -13 7 -8 -3 -20 -1 -28 4 -11
7 -11 9 -1 9 7 0 11 4 7 9 -3 5 0 13 6 17 8 5 9 3 4 -6 -6 -10 -4 -12 9 -7 11
5 15 3 10 -5 -4 -7 -3 -8 4 -4 15 9 16 46 1 46 -5 0 -7 -5 -3 -12 4 -7 3 -8
-5 -4 -17 11 -2 28 20 21 14 -5 17 -3 13 9 -3 9 -11 13 -17 9 -6 -3 -7 -1 -3
6 5 7 13 9 20 4 7 -4 4 -1 -6 8 -15 14 -15 18 -3 23 8 3 19 -3 25 -12 10 -15
11 -15 5 3 -4 11 -8 27 -8 35 0 8 -7 20 -15 26 -12 9 -12 12 1 26 9 8 14 24
13 34 -2 10 1 22 6 25 5 3 3 9 -5 12 -11 4 -15 0 -12 -14 2 -10 -1 -19 -6 -19
-6 0 -7 -5 -3 -12 4 -6 3 -8 -3 -5 -11 7 -11 36 0 54 9 15 -9 27 -25 17 -10
-5 -10 -4 -1 6 10 10 15 11 27 1 11 -9 16 -9 22 1 4 7 4 10 -1 6 -4 -4 -14 -1
-21 7 -21 20 -17 27 9 15 20 -10 20 -10 5 3 -10 8 -16 16 -13 18 2 3 -6 6 -18
6 -17 2 -19 0 -7 -7 8 -5 11 -10 5 -10 -5 0 -20 8 -33 18 -21 17 -22 18 -3 18
11 0 17 -5 14 -10 -3 -5 -1 -6 6 -2 8 6 9 12 2 20 -6 7 -7 17 -3 21 4 5 1 5
-6 1 -7 -4 -9 -12 -6 -18 4 -6 -1 -6 -14 1 -23 12 -38 31 -25 31 5 0 14 10 22
23 13 21 13 21 -4 7 -17 -14 -17 -13 -12 10 6 21 5 21 -7 -4 -12 -27 -13 -27
-19 -7 -3 11 -1 19 4 15 5 -3 9 0 9 5 0 15 -13 14 -29 -1 -11 -11 -12 -9 -6
11 6 18 4 22 -6 15 -20 -12 -40 -14 -33 -3 3 5 -3 9 -13 9 -10 0 -24 10 -32
23 -13 21 -13 22 6 5 25 -23 32 -23 30 1 -1 14 -5 17 -13 10 -8 -7 -14 -7 -18
0 -9 14 -37 2 -29 -13 3 -6 2 -7 -2 -3 -12 10 -15 38 -4 32 5 -4 6 1 2 10 -3
9 -9 13 -12 8 -14 -19 -50 -33 -57 -22 -4 8 -9 7 -16 -2 -6 -10 -7 -7 -3 9 4
13 2 22 -4 22 -6 0 -11 -8 -11 -17 0 -15 -2 -16 -9 -3 -6 8 -7 18 -4 24 3 5 1
6 -5 2 -7 -4 -12 -14 -12 -22 0 -8 -4 -14 -10 -14 -5 0 -7 7 -4 15 4 8 1 15
-4 15 -6 0 -14 -9 -17 -20 -4 -11 -11 -17 -17 -14 -6 4 -5 10 3 15 12 8 12 11
-1 18 -16 11 -33 4 -25 -9 6 -10 -14 -25 -35 -25 -8 0 -20 -4 -27 -8 -6 -4
-15 -2 -19 4 -4 7 -3 9 4 6 6 -5 8 1 4 15 -5 21 -6 21 -12 2 -4 -10 -3 -27 1
-36 7 -13 6 -16 -5 -12 -8 3 -17 11 -19 17 -2 7 -3 0 -1 -15 2 -15 -1 -30 -7
-33 -5 -4 -9 -3 -8 2 4 22 -3 33 -18 32 -11 0 -13 -3 -5 -6 6 -2 12 -9 12 -14
0 -6 -8 -6 -19 1 -13 7 -22 7 -26 0 -6 -10 -5 -11 15 -14 6 0 9 -5 8 -11 -4
-13 -20 -8 -37 13 -13 16 -13 15 -7 -3 4 -11 8 -24 9 -30 1 -5 9 -13 17 -17
10 -5 6 -7 -10 -5 -16 1 -24 -3 -23 -10 2 -7 -3 -12 -10 -10 -6 1 -11 -4 -10
-10 4 -17 -2 -16 -21 2 -13 14 -15 13 -13 -5 1 -11 8 -20 17 -21 10 0 11 -2 2
-6 -6 -2 -10 -9 -6 -14 3 -5 3 -9 0 -9 -3 0 -12 12 -21 28 -12 20 -15 22 -13
7 2 -11 9 -26 15 -33 16 -17 -4 -52 -29 -52 -10 0 -22 -8 -27 -19 -9 -16 -7
-18 15 -15 18 2 22 -1 15 -9 -5 -7 -10 -15 -10 -19 -1 -11 -11 -11 -19 -2 -4
4 -2 4 4 1 6 -3 11 1 11 9 0 9 -4 11 -10 5 -5 -5 -17 -7 -26 -3 -9 3 -4 -6 12
-20 23 -21 25 -27 12 -32 -9 -3 -13 -11 -9 -17 4 -8 3 -9 -5 -5 -9 6 -9 11 0
22 7 8 7 14 1 14 -5 0 -13 -7 -16 -16 -3 -8 -10 -13 -15 -9 -6 3 -8 -3 -6 -13
2 -10 -1 -25 -7 -33 -8 -11 -9 -10 -4 4 4 12 0 17 -16 17 -17 0 -18 -2 -8 -15
11 -13 10 -14 -4 -9 -9 3 -16 1 -16 -5 0 -6 5 -11 10 -11 6 0 10 -5 10 -11 0
-8 -4 -9 -13 0 -14 11 -27 5 -27 -11 0 -5 5 -6 12 -2 7 4 8 3 4 -5 -6 -8 -12
-9 -20 -2 -7 6 -15 10 -17 8 -2 -1 4 5 14 13 9 8 19 26 22 39 2 13 1 20 -3 17
-4 -4 -8 -12 -8 -17 -1 -5 -2 -13 -3 -18 0 -5 -10 -13 -21 -16 -11 -3 -20 -13
-20 -21 0 -8 -5 -14 -11 -14 -5 0 -8 4 -5 9 3 5 -1 14 -9 21 -10 9 -15 9 -15
1 0 -6 5 -11 11 -11 5 0 7 -5 4 -10 -4 -6 -12 -8 -18 -4 -7 3 -5 -1 4 -8 15
-12 14 -15 -5 -29 -20 -16 -22 -15 -22 1 0 10 5 17 11 16 5 -2 7 -1 3 1 -4 3
-10 4 -14 3 -4 -1 -11 4 -16 12 -8 10 -9 9 -5 -4 3 -9 3 -19 -1 -21 -4 -2 -1
-2 7 0 10 2 11 0 4 -9 -6 -7 -9 -21 -8 -31 2 -9 -1 -15 -6 -11 -5 3 -7 9 -4
14 9 15 -15 22 -30 10 -8 -7 -15 -9 -15 -5 0 4 -7 2 -15 -5 -12 -10 -18 -10
-32 1 -16 13 -17 12 -4 -3 11 -14 11 -21 1 -33 -6 -8 -8 -20 -4 -27 5 -10 4
-11 -7 0 -18 17 -30 15 -23 -3 5 -11 2 -13 -9 -9 -9 3 -14 13 -11 22 5 14 4
14 -6 -1 -6 -9 -16 -14 -22 -11 -7 4 -8 2 -4 -5 4 -6 11 -9 16 -6 4 3 14 -3
21 -12 10 -12 10 -14 2 -9 -8 4 -13 2 -13 -6 0 -8 -5 -6 -11 5 -13 22 -31 22
-27 0 2 -10 -2 -18 -9 -18 -7 0 -21 -7 -31 -16 -15 -13 -20 -13 -31 -2 -7 8
-16 12 -19 8 -4 -3 -2 -9 4 -13 6 -4 3 -13 -8 -24 -10 -10 -18 -14 -18 -8 0 6
-5 10 -11 10 -5 0 -7 -4 -4 -10 3 -5 0 -7 -9 -4 -9 3 -12 12 -9 22 4 9 3 14
-1 10 -4 -3 -9 -14 -10 -24 -2 -10 -8 -20 -14 -22 -7 -2 -10 3 -6 12 3 9 1 16
-6 16 -6 0 -8 -4 -5 -10 3 -5 -2 -10 -12 -10 -15 0 -15 -2 -4 -9 13 -8 13 -12
0 -27 -13 -15 -12 -16 11 -10 18 5 21 4 10 -3 -8 -5 -38 -8 -66 -8 -33 1 -51
-2 -51 -10 0 -6 7 -8 16 -5 14 5 14 4 -1 -11 -10 -10 -23 -14 -34 -10 -11 4
-15 3 -10 -5 3 -6 1 -14 -5 -18 -7 -4 -9 -3 -5 4 4 7 -2 10 -15 9 -20 -1 -20
-2 3 -21 13 -11 16 -17 7 -13 -9 3 -22 0 -28 -6 -6 -6 -11 -7 -11 -2 0 5 -7 0
-16 -11 -14 -18 -15 -18 -4 4 6 12 8 22 4 22 -3 0 0 8 7 18 13 15 12 16 -4 3
-9 -8 -15 -16 -13 -19 11 -10 -26 -34 -44 -29 -11 3 -20 1 -20 -4 0 -5 6 -9
13 -9 9 0 8 -3 -2 -9 -11 -7 -11 -9 0 -14 8 -3 9 -6 3 -6 -6 -1 -18 7 -25 16
-12 14 -12 16 0 8 9 -5 12 -4 7 3 -4 6 -14 8 -24 5 -15 -6 -16 -5 -2 13 8 10
10 16 6 12 -5 -4 -15 0 -23 10 -8 9 -12 11 -8 4 8 -15 -13 -44 -27 -36 -5 3
-16 0 -25 -8 -14 -11 -16 -11 -8 1 6 11 4 13 -10 7 -16 -6 -16 -4 -4 11 8 9 9
14 3 10 -7 -4 -15 1 -19 11 -6 15 -8 14 -20 -8 -8 -14 -14 -20 -15 -14 0 7 -7
15 -16 18 -13 5 -14 3 -6 -7 8 -10 6 -13 -9 -13 -14 0 -17 5 -13 19 4 13 2 17
-5 13 -6 -4 -11 -15 -11 -24 -1 -16 -1 -16 -11 0 -6 10 -16 15 -26 11 -14 -6
-14 -8 3 -20 21 -16 11 -17 -17 -2 -11 5 -17 14 -14 19 3 5 1 11 -4 15 -6 3
-8 -3 -6 -15 2 -11 -1 -20 -6 -20 -6 0 -7 -6 -3 -12 6 -10 4 -10 -7 -2 -8 6
-24 10 -37 8 -14 -3 -21 0 -17 6 3 6 17 8 30 6 18 -3 22 -1 18 11 -3 8 -9 11
-12 6 -3 -5 -16 -8 -28 -7 -13 1 -20 -3 -16 -9 4 -6 0 -8 -10 -4 -10 4 -22 -1
-31 -14 -9 -13 -16 -17 -21 -10 -3 6 -10 9 -14 7 -4 -3 -8 1 -8 8 0 7 6 13 13
13 7 0 11 -4 8 -9 -3 -4 0 -8 5 -8 6 0 11 7 11 15 0 15 -32 16 -46 2 -11 -10
-24 -8 -24 4 0 5 4 7 10 4 6 -3 7 1 4 10 -4 10 -10 12 -18 7 -14 -12 -47 -12
-40 0 3 4 0 8 -6 8 -8 0 -8 6 0 20 10 19 10 20 -9 8 -11 -6 -17 -17 -14 -23 4
-5 2 -6 -2 -2 -13 12 -15 37 -2 34 6 -1 12 7 14 18 3 19 3 19 -5 1 -7 -16 -9
-17 -14 -4 -5 12 -20 15 -63 14 -31 -1 -59 2 -62 8 -3 5 -1 6 5 2 7 -4 12 -2
12 5 0 8 5 7 17 -2 10 -8 14 -9 10 -2 -4 6 -3 14 3 18 6 4 8 11 4 16 -4 6 -11
6 -20 -2 -11 -9 -18 -8 -32 4 -17 15 -20 15 -37 -1 -15 -13 -16 -14 -7 -1 13
18 6 53 -9 43 -5 -3 -9 3 -10 13 0 13 -2 14 -6 4 -3 -8 2 -20 11 -27 16 -11
16 -13 -6 -25 -22 -12 -22 -11 -8 6 13 17 13 18 -1 13 -12 -5 -15 -1 -13 19 1
14 -4 27 -12 30 -8 3 -12 9 -9 13 3 5 1 12 -5 15 -6 4 -9 3 -8 -2 2 -4 -2 -8
-7 -8 -6 0 -9 4 -7 9 2 5 -3 4 -12 -3 -11 -10 -17 -8 -30 11 -9 12 -16 17 -16
10 0 -7 -5 -10 -10 -7 -6 4 -7 11 -4 17 5 7 2 8 -5 3 -9 -5 -10 -10 -2 -18 6
-6 11 -16 11 -22 0 -5 -5 -2 -11 8 -6 9 -15 15 -20 11 -6 -4 -5 -12 3 -22 9
-12 6 -11 -10 2 -22 19 -30 32 -13 21 6 -3 15 4 21 15 10 20 4 26 -24 21 -5
-1 -6 6 -2 15 5 14 4 15 -8 5 -11 -9 -15 -9 -19 1 -4 9 -6 10 -6 1 -1 -14 33
-35 43 -26 3 3 6 1 6 -5 0 -6 -9 -10 -20 -9 -11 1 -20 5 -20 10 0 4 -5 5 -12
1 -6 -4 -8 -3 -5 3 4 6 -2 22 -13 35 -11 14 -17 28 -15 32 3 3 0 2 -6 -3 -7
-6 -24 -1 -47 12 -35 21 -36 21 -29 2 7 -19 7 -19 -9 0 -8 11 -22 19 -31 17
-14 -3 -14 -2 1 13 9 9 16 22 16 28 0 7 -5 4 -11 -6 -6 -9 -14 -15 -19 -12 -5
3 -11 1 -15 -5 -3 -5 -12 -10 -18 -10 -8 0 -7 3 2 9 11 7 9 10 -8 16 -21 6
-31 45 -11 45 5 0 7 -6 4 -14 -3 -8 3 -19 15 -26 14 -7 21 -7 21 0 0 5 -7 10
-15 10 -21 0 -19 20 3 21 15 0 15 1 -2 8 -24 9 -10 18 26 16 15 0 25 1 23 4
-9 8 38 41 49 34 6 -3 8 -3 4 2 -4 4 -2 15 5 24 6 9 -6 2 -28 -15 -56 -43 -66
-48 -59 -30 3 9 12 16 19 16 8 0 12 8 10 20 -2 11 0 20 6 20 5 0 9 -4 9 -10 0
-5 5 -10 11 -10 6 0 9 6 6 14 -4 10 3 12 24 10 16 -2 29 1 29 6 0 6 5 10 11
10 5 0 8 -4 5 -9 -3 -4 5 -8 17 -7 13 1 21 7 19 15 -2 8 3 11 11 8 7 -3 14 1
14 8 0 7 -8 12 -19 10 -10 -2 -16 0 -13 5 3 4 16 7 30 5 22 -2 23 0 13 13 -11
13 -11 14 1 7 20 -12 62 -15 55 -4 -3 5 -10 6 -16 3 -6 -4 -6 1 1 14 10 18 41
22 41 5 0 -3 -7 -2 -16 1 -8 3 -13 2 -10 -3 8 -12 56 -11 56 1 0 5 -4 7 -8 4
-5 -3 -9 1 -9 8 0 8 6 12 14 9 11 -4 11 0 3 23 -8 21 -8 26 0 18 6 -6 12 -21
13 -33 1 -11 5 -21 10 -21 5 0 7 8 5 18 -4 13 1 18 16 20 58 4 81 10 79 18 -1
5 -4 18 -8 29 -6 18 -5 18 5 3 12 -20 30 -24 30 -7 0 5 -4 7 -10 4 -5 -3 -10
-1 -10 4 0 6 4 11 9 11 14 0 31 -26 23 -36 -4 -4 2 -2 13 6 30 21 32 24 13 17
-16 -6 -35 20 -23 31 3 3 5 0 5 -5 0 -6 8 -10 18 -9 9 2 21 -2 25 -8 6 -7 7
-4 3 7 -3 9 -1 18 4 18 34 5 59 20 65 39 6 18 39 34 64 30 13 -1 13 1 2 14
-12 14 -11 16 3 10 12 -5 15 -2 10 12 -5 15 -4 16 4 4 6 -8 9 -17 6 -21 -2 -4
2 -9 9 -12 8 -3 12 6 11 29 -1 19 2 32 7 29 4 -3 6 -12 2 -20 -3 -8 0 -15 6
-15 6 0 11 5 11 10 0 6 4 10 9 10 6 0 8 -10 6 -21 -4 -20 -3 -20 13 -5 15 12
21 13 32 3 9 -8 11 -8 6 0 -3 6 -2 14 3 18 5 3 14 -3 20 -12 6 -11 11 -13 11
-5 0 7 4 11 9 7 5 -3 13 0 17 6 5 9 11 6 22 -7 14 -18 14 -18 8 -1 -4 13 -2
17 6 14 7 -2 12 -10 11 -16 -2 -6 2 -11 8 -11 6 0 9 6 6 14 -7 18 20 29 30 13
5 -7 19 -18 33 -26 24 -13 24 -13 10 4 -14 16 -13 17 7 11 12 -4 24 -2 28 3 4
7 -1 8 -12 4 -17 -6 -17 -6 -1 10 22 23 27 21 24 -8 -3 -20 0 -23 14 -15 11 6
21 5 28 -2 7 -7 13 -4 21 10 7 13 19 19 30 17 14 -3 18 1 14 12 -5 12 -7 12
-14 1 -6 -9 -9 -9 -9 -1 0 24 23 25 42 2 11 -13 17 -18 13 -11 -9 17 14 44 29
35 6 -4 5 1 -2 9 -8 9 -20 14 -29 11 -11 -4 -11 -8 -3 -13 7 -4 8 -10 4 -13
-5 -3 -14 0 -20 7 -13 14 2 32 26 31 8 -1 28 9 43 22 29 24 53 31 42 13 -3 -5
-1 -10 4 -10 15 0 14 11 -5 31 -12 13 -12 19 -3 25 7 4 10 3 6 -3 -4 -6 0 -14
9 -17 8 -3 12 -2 9 4 -3 6 1 10 10 10 10 0 13 -5 9 -12 -4 -7 -3 -8 5 -4 14 9
5 26 -14 26 -7 0 -15 7 -19 15 -4 12 -2 13 13 6 13 -7 18 -6 18 4 0 8 -4 12
-8 9 -4 -2 -11 1 -15 7 -4 7 -3 9 3 6 20 -12 36 19 23 45 -10 21 -10 21 3 6 8
-10 18 -14 22 -10 5 4 5 2 1 -5 -9 -16 13 -28 27 -14 9 9 7 10 -8 5 l-20 -7
20 23 c11 13 15 20 9 17 -8 -5 -11 2 -10 17 1 17 4 22 13 15 8 -7 10 -5 6 10
-3 13 -11 18 -21 15 -10 -3 -5 2 11 11 29 17 36 28 12 18 -9 -3 -15 -2 -14 3
3 19 -1 35 -9 30 -5 -3 -9 1 -9 9 0 8 3 12 7 10 3 -2 12 0 20 6 10 6 11 9 3 9
-7 0 -13 4 -13 10 0 5 8 7 18 4 16 -5 16 -5 -1 6 -14 9 -15 15 -6 32 8 15 8
19 0 14 -15 -10 -14 7 1 22 9 9 9 12 0 12 -7 0 -12 -5 -12 -11 0 -5 -5 -7 -10
-4 -8 5 -7 12 2 23 10 12 10 14 1 8 -7 -4 -13 -3 -13 1 0 5 6 15 13 23 6 8 1
6 -12 -5 -22 -18 -24 -18 -18 -2 4 11 1 20 -8 24 -13 4 -13 8 -3 21 8 10 9 13
1 9 -6 -4 -14 -1 -17 5 -2 7 -3 2 -2 -11 2 -14 8 -27 14 -29 7 -2 9 -9 6 -14
-4 -6 2 -18 12 -26 18 -14 18 -14 1 -8 -10 3 -21 6 -23 6 -2 0 -4 9 -4 21 0
11 -4 18 -8 15 -10 -6 -10 55 1 71 4 7 1 10 -10 8 -10 -1 -17 -7 -16 -13 1 -6
-4 -12 -11 -15 -8 -3 -13 1 -12 10 0 9 -7 17 -17 19 -22 3 -36 14 -19 14 7 0
12 5 12 11 0 5 -5 7 -12 3 -7 -5 -8 -3 -3 6 5 9 14 4 31 -16 13 -16 23 -23 24
-16 0 6 -4 12 -9 12 -5 0 -13 9 -16 20 -4 11 -12 20 -18 19 -28 -3 -39 2 -33
16 3 8 2 14 -2 14 -4 -1 -9 0 -12 1 -22 8 -47 7 -59 -3 -12 -10 -14 -9 -8 6 3
9 4 24 0 32 -5 14 -8 14 -27 -2 -11 -10 -18 -14 -14 -9 9 11 -30 41 -52 40 -8
0 -14 -5 -12 -12 1 -7 -2 -12 -8 -12 -21 0 -26 -2 -44 -18 -10 -9 -21 -17 -25
-17 -3 0 -5 -4 -3 -8 1 -5 -2 -6 -7 -2 -14 8 -1 37 15 31 18 -7 35 16 24 34
-8 12 -10 12 -10 -4 0 -15 -3 -16 -15 -6 -8 7 -12 16 -9 21 3 5 3 9 0 9 -3 0
-8 -5 -11 -10z m15 -19 c3 -1 -2 -5 -10 -10 -15 -10 -30 -6 -30 9 0 4 8 7 18
5 9 -2 19 -4 22 -4z m122 -15 c9 -17 9 -17 -16 -1 -30 20 -32 24 -10 21 9 -1
21 -10 26 -20z m-31 -29 c-10 -9 -11 -8 -5 6 3 10 9 15 12 12 3 -3 0 -11 -7
-18z m89 19 c0 -3 -4 -8 -10 -11 -5 -3 -10 -1 -10 4 0 6 5 11 10 11 6 0 10 -2
10 -4z m-26 -25 c4 -5 -3 -7 -14 -4 -23 6 -26 13 -6 13 8 0 17 -4 20 -9z m93
-18 c2 -6 -3 -13 -11 -16 -9 -4 -15 -1 -13 6 1 7 -4 11 -11 9 -8 -1 -11 2 -8
7 8 12 39 8 43 -6z m-439 -37 c-10 -7 -14 -17 -10 -21 4 -5 1 -5 -6 -1 -11 6
-10 12 4 27 9 11 20 16 23 13 3 -3 -2 -11 -11 -18z m-64 -82 c3 -9 -1 -11 -12
-7 -15 6 -15 5 -3 -10 7 -9 11 -17 7 -17 -3 0 -9 0 -13 0 -4 0 -8 10 -8 23 -2
25 21 33 29 11z m637 -81 c13 -16 12 -17 -3 -4 -17 13 -22 21 -14 21 2 0 10
-8 17 -17z m49 -22 c13 -25 13 -31 -1 -31 -5 0 -8 4 -4 9 3 5 -2 17 -11 25 -8
9 -11 16 -5 16 6 0 15 -9 21 -19z m-730 -35 c0 -3 -4 -8 -10 -11 -5 -3 -10 -1
-10 4 0 6 5 11 10 11 6 0 10 -2 10 -4z m733 -21 c-3 -9 -8 -14 -10 -11 -3 3
-2 9 2 15 9 16 15 13 8 -4z m-813 -56 c0 -15 -18 -19 -23 -6 -3 8 1 14 9 14 8
0 14 -4 14 -8z m817 -24 c0 -8 -4 -15 -9 -15 -10 0 -11 14 -1 23 9 10 10 9 10
-8z m-922 -64 c-6 -5 -25 10 -25 20 0 5 6 4 14 -3 8 -7 12 -15 11 -17z m910
-1 c3 -6 -1 -7 -9 -4 -18 7 -21 14 -7 14 6 0 13 -4 16 -10z m-4 -27 c13 -16
12 -17 -3 -4 -17 13 -22 21 -14 21 2 0 10 -8 17 -17z m-1104 -55 c-1 -10 -2
-18 -4 -18 -1 0 -7 8 -12 18 -7 14 -6 19 4 19 7 0 13 -9 12 -19z m-182 -116
c-8 -8 -54 -11 -59 -3 -3 4 6 7 19 5 14 -1 25 2 25 7 0 5 -5 9 -11 9 -5 0 -7
5 -4 11 5 6 12 4 20 -8 7 -10 12 -19 10 -21z m794 -74 c8 3 12 -1 9 -9 -5 -16
-30 -19 -40 -5 -4 6 -13 5 -22 -3 -9 -8 -16 -10 -16 -6 0 4 -6 2 -14 -4 -12
-10 -13 -8 -9 8 3 12 9 19 13 16 5 -3 11 -1 15 4 3 6 15 7 28 2 12 -4 28 -6
36 -3z m244 -8 c20 10 20 10 5 -3 -10 -8 -14 -18 -10 -23 4 -4 0 -3 -9 4 -9 6
-18 10 -20 7 -3 -2 -6 6 -6 18 -2 19 -1 20 8 4 8 -14 14 -15 32 -7z m-193 6
c0 -2 -7 -7 -16 -10 -8 -3 -12 -2 -9 4 6 10 25 14 25 6z m-1019 -29 c-10 -9
-11 -8 -5 6 3 10 9 15 12 12 3 -3 0 -11 -7 -18z m1103 11 c-3 -4 -9 -8 -15 -8
-5 0 -9 4 -9 8 0 5 7 9 15 9 8 0 12 -4 9 -9z m-1474 -8 c0 -5 -5 -10 -11 -10
-5 0 -7 5 -4 10 3 6 8 10 11 10 2 0 4 -4 4 -10z m1130 -14 c0 -3 -4 -8 -10
-11 -5 -3 -10 -1 -10 4 0 6 5 11 10 11 6 0 10 -2 10 -4z m-69 -60 c15 9 10 -2
-6 -16 -13 -10 -15 -9 -14 11 0 13 3 18 6 11 2 -6 9 -10 14 -6z m-60 -30 c1 5
1 12 0 16 0 4 6 5 15 1 8 -3 14 -6 12 -7 -2 -1 -11 -7 -20 -14 -14 -11 -18
-10 -28 10 -11 22 -10 22 4 4 9 -11 17 -16 17 -10z m-128 -54 c3 8 6 8 6 2 1
-6 -7 -18 -16 -25 -14 -12 -16 -12 -8 0 6 11 4 13 -8 8 -11 -4 -14 -2 -10 9 4
11 9 12 18 4 9 -8 14 -7 18 2z m36 -5 c8 -10 7 -14 -4 -14 -8 0 -15 6 -15 14
0 7 2 13 4 13 2 0 9 -6 15 -13z m-1204 -46 c3 -5 2 -12 -3 -15 -5 -3 -9 1 -9
9 0 17 3 19 12 6z m-53 -44 c-7 -8 -10 -16 -7 -19 3 -2 -2 -5 -10 -5 -10 0
-12 4 -5 12 5 7 6 16 2 20 -4 5 -1 5 6 1 7 -4 12 -2 12 5 0 7 3 9 6 6 4 -4 2
-13 -4 -20z m1068 17 c0 -8 -19 -13 -24 -6 -3 5 1 9 9 9 8 0 15 -2 15 -3z
m2615 -12 c-3 -3 -11 0 -18 7 -9 10 -8 11 6 5 10 -3 15 -9 12 -12z m-3685 -46
c0 -2 -7 -9 -15 -16 -13 -11 -14 -10 -9 4 5 14 24 23 24 12z m995 -16 c3 -5 1
-10 -4 -10 -6 0 -11 5 -11 10 0 6 2 10 4 10 3 0 8 -4 11 -10z m-1015 -30 c0
-5 -5 -10 -11 -10 -5 0 -7 5 -4 10 3 6 8 10 11 10 2 0 4 -4 4 -10z m2940 -60
c0 -5 -5 -10 -11 -10 -5 0 -7 5 -4 10 3 6 8 10 11 10 2 0 4 -4 4 -10z m810
-14 c0 -3 -4 -8 -10 -11 -5 -3 -10 -1 -10 4 0 6 5 11 10 11 6 0 10 -2 10 -4z
m-2786 -131 c3 -8 0 -17 -6 -21 -7 -4 -8 -3 -4 4 4 7 3 12 -2 12 -6 0 -12 7
-15 14 -4 10 -1 13 8 10 7 -3 16 -12 19 -19z m33 -25 c-2 -23 -10 -17 -12 10
-1 10 2 17 6 14 4 -2 7 -13 6 -24z m1685 13 c-6 -9 -19 -17 -31 -18 -16 -1
-18 1 -9 12 8 10 13 11 18 3 5 -8 9 -7 13 4 4 9 9 16 12 16 3 0 2 -8 -3 -17z
m-47 -42 c3 -5 2 -12 -3 -15 -5 -3 -9 1 -9 9 0 17 3 19 12 6z m1006 -38 c13
-16 12 -17 -3 -4 -17 13 -22 21 -14 21 2 0 10 -8 17 -17z m-2496 -3 c3 -5 1
-10 -4 -10 -6 0 -11 5 -11 10 0 6 2 10 4 10 3 0 8 -4 11 -10z m40 -20 c3 -5 1
-10 -4 -10 -6 0 -11 5 -11 10 0 6 2 10 4 10 3 0 8 -4 11 -10z m41 -25 c-1 -8
-6 -18 -11 -22 -4 -4 -5 -2 -1 5 4 6 2 12 -3 12 -6 0 -11 7 -11 15 0 8 6 12
14 9 8 -3 13 -12 12 -19z m-1066 -11 c0 4 5 4 10 1 6 -4 8 -11 4 -16 -4 -6
-10 -6 -18 0 -7 6 -15 9 -17 6 -3 -2 -5 5 -5 16 0 19 1 19 13 3 7 -10 13 -14
13 -10z m49 -31 c-6 -7 -15 -10 -20 -7 -13 8 -3 21 15 21 12 0 13 -4 5 -14z
m2241 13 c0 -2 -7 -9 -15 -16 -13 -11 -14 -10 -9 4 5 14 24 23 24 12z m804
-12 c3 -8 2 -12 -4 -9 -6 3 -10 10 -10 16 0 14 7 11 14 -7z m241 6 c-3 -5 -12
-10 -18 -10 -7 0 -6 4 3 10 19 12 23 12 15 0z m-2180 -20 c3 -5 1 -10 -4 -10
-6 0 -11 5 -11 10 0 6 2 10 4 10 3 0 8 -4 11 -10z m1060 0 c3 -5 1 -10 -4 -10
-6 0 -11 5 -11 10 0 6 2 10 4 10 3 0 8 -4 11 -10z m-1964 -14 c-8 -10 -9 -16
-1 -21 5 -3 10 -1 10 6 0 7 3 10 6 6 3 -3 3 -11 -1 -17 -5 -8 -10 -8 -20 0 -9
8 -15 8 -20 0 -3 -6 -11 -8 -16 -4 -5 3 -7 10 -3 15 3 5 9 7 14 4 4 -3 13 2
20 10 7 8 15 15 17 15 3 0 0 -6 -6 -14z m2797 3 c47 4 89 -2 89 -14 0 -16 -50
-12 -55 3 -3 10 -10 9 -29 -3 -14 -9 -27 -14 -31 -11 -3 3 -13 -1 -23 -10 -12
-11 -19 -12 -24 -4 -10 17 -5 20 45 29 3 1 -2 6 -10 12 -12 9 -11 9 5 4 11 -4
26 -7 33 -6z m237 -9 c10 -11 16 -20 13 -20 -3 0 -13 9 -23 20 -10 11 -16 20
-13 20 3 0 13 -9 23 -20z m-85 -4 c0 -2 -8 -10 -17 -17 -16 -13 -17 -12 -4 4
13 16 21 21 21 13z m-1953 -48 c-3 -8 -6 -5 -6 6 -1 11 2 17 5 13 3 -3 4 -12
1 -19z m33 15 c0 -5 -5 -15 -10 -23 -7 -12 -9 -10 -7 8 1 19 17 33 17 15z
m1594 -1 c3 -5 -1 -9 -9 -9 -8 0 -12 4 -9 9 3 4 7 8 9 8 2 0 6 -4 9 -8z
m-2314 -82 c0 -5 -5 -10 -11 -10 -5 0 -7 5 -4 10 3 6 8 10 11 10 2 0 4 -4 4
-10z m1167 -12 c-3 -8 -6 -5 -6 6 -1 11 2 17 5 13 3 -3 4 -12 1 -19z m108 1
c-4 -6 1 -17 11 -25 18 -14 18 -14 -3 -4 -23 11 -28 21 -16 33 10 11 15 8 8
-4z m-1195 -14 c0 -1 -6 -7 -13 -13 -10 -8 -13 -6 -13 7 0 11 6 17 13 14 7 -3
13 -6 13 -8z m872 -10 c2 3 5 -2 5 -10 0 -11 -4 -12 -11 -5 -14 14 -29 13 -20
-2 4 -7 3 -8 -5 -4 -6 4 -9 12 -6 17 4 5 1 9 -4 9 -6 0 -11 -7 -11 -17 0 -9
-3 -14 -6 -10 -3 3 -3 15 1 26 6 19 8 19 29 6 12 -8 25 -13 28 -10z m1183 -17
c5 4 5 1 1 -5 -4 -7 -17 -18 -29 -23 -20 -10 -20 -10 -5 3 14 11 15 16 5 27
-10 12 -9 12 4 2 9 -6 20 -8 24 -4z m-56 -30 c-5 -10 -12 -18 -14 -18 -2 0 -3
8 -2 18 0 10 7 19 13 19 9 0 10 -5 3 -19z m-74 -38 c-3 -5 -12 -10 -18 -10 -7
0 -6 4 3 10 19 12 23 12 15 0z m-84 -63 c-7 -7 -14 -8 -21 -1 -6 6 -2 10 12
11 16 2 18 -1 9 -10z m-502 -454 c-6 -7 -15 -10 -20 -7 -13 8 -3 21 15 21 12
0 13 -4 5 -14z m-553 -22 c-18 -7 -18 -8 5 -24 13 -9 19 -17 13 -17 -15 0 -45
35 -37 43 3 4 13 7 22 6 12 0 11 -2 -3 -8z m24 -61 c0 -5 -5 -10 -11 -10 -5 0
-7 5 -4 10 3 6 8 10 11 10 2 0 4 -4 4 -10z m457 -24 c0 -8 -6 -12 -15 -9 -11
5 -11 7 0 14 7 5 13 9 14 9 0 0 1 -6 1 -14z m-7 -50 c0 -2 -8 -10 -17 -17 -16
-13 -17 -12 -4 4 13 16 21 21 21 13z m0 -31 c0 -2 -9 -9 -20 -15 -12 -6 -20
-7 -20 -1 0 5 8 12 18 14 9 3 18 5 20 6 1 0 2 -1 2 -4z m-63 -20 c0 -8 -4 -12
-9 -9 -5 3 -6 10 -3 15 9 13 12 11 12 -6z m1466 -48 c6 -16 -49 -22 -59 -6 -4
7 0 9 14 5 11 -4 23 -2 27 4 8 13 12 13 18 -3z m-1830 -6 c-4 -3 -10 -10 -14
-14 -3 -4 -11 -2 -17 5 -8 10 -5 13 15 14 13 1 21 -1 16 -5z m1929 -25 c5 -10
7 -20 4 -23 -3 -4 -6 -1 -6 5 0 7 -7 12 -15 12 -8 0 -15 6 -15 13 0 7 -3 8 -8
2 -4 -5 -14 -11 -22 -13 -11 -2 -10 1 3 12 23 18 46 15 59 -8z m-227 -16 c3
-5 1 -10 -4 -10 -6 0 -11 5 -11 10 0 6 2 10 4 10 3 0 8 -4 11 -10z m-55 -13
c0 -5 -6 -7 -14 -4 -8 3 -17 -1 -20 -9 -3 -8 -11 -14 -18 -14 -10 0 -10 2 1 9
7 5 11 13 8 18 -3 5 5 9 19 9 13 0 24 -4 24 -9z m-2697 -23 c-4 -12 -8 -13
-14 -3 -9 15 -2 32 11 24 5 -3 6 -13 3 -21z m1467 -42 c0 -5 -7 -9 -15 -9 -8
0 -12 4 -9 9 3 4 9 8 15 8 5 0 9 -4 9 -8z m-1363 -44 c-3 -8 -6 -5 -6 6 -1 11
2 17 5 13 3 -3 4 -12 1 -19z m3052 8 c8 -10 8 -16 -2 -24 -10 -9 -13 -6 -13
13 0 29 0 29 15 11z m-2105 -8 c-3 -4 -9 -8 -15 -8 -5 0 -9 4 -9 8 0 5 7 9 15
9 8 0 12 -4 9 -9z m2126 -32 c0 -3 -4 -8 -10 -11 -5 -3 -10 -1 -10 4 0 6 5 11
10 11 6 0 10 -2 10 -4z m-3730 -26 c-14 -9 -7 -14 13 -11 5 1 6 -3 2 -9 -5 -8
-11 -8 -21 1 -15 12 -10 29 9 29 7 0 6 -4 -3 -10z m727 -69 c-1 -17 -27 -26
-27 -9 0 4 5 8 12 8 9 0 9 3 0 12 -17 17 -15 33 2 19 8 -7 14 -20 13 -30z
m2358 30 c-9 -8 -36 -10 -30 -2 2 4 11 8 20 8 8 0 13 -3 10 -6z m-1057 -13 c8
-10 4 -13 -13 -14 -19 -2 -21 1 -12 12 15 16 13 16 25 2z m-1338 -8 c0 -5 -2
-10 -4 -10 -3 0 -8 5 -11 10 -3 6 -1 10 4 10 6 0 11 -4 11 -10z m3055 1 c3 -5
2 -12 -3 -15 -5 -3 -9 1 -9 9 0 17 3 19 12 6z m39 -60 c-8 -8 -43 -8 -38 0 2
4 13 7 24 6 10 -1 17 -3 14 -6z m-1007 -103 c1 -26 -1 -29 -7 -13 -6 17 -3 45
5 45 1 0 2 -15 2 -32z m-749 10 c8 -10 4 -13 -13 -14 -19 -2 -21 1 -12 12 15
16 13 16 25 2z m-1035 -54 c1 -4 -8 -9 -20 -10 -22 -4 -22 -3 -5 16 15 18 19
17 25 -6z m2771 -22 c2 -4 -5 -9 -17 -9 -17 -2 -19 0 -7 7 18 12 18 12 24 2z
m-2681 -35 c4 3 7 1 7 -5 0 -6 9 -9 20 -7 11 2 20 0 20 -6 0 -11 -49 -4 -63
10 -5 5 -16 7 -23 4 -8 -3 -14 0 -14 7 0 6 5 8 10 5 6 -3 10 0 10 7 1 9 5 7
14 -4 7 -10 16 -15 19 -11z m507 13 c0 -5 -5 -10 -11 -10 -5 0 -7 5 -4 10 3 6
8 10 11 10 2 0 4 -4 4 -10z m943 -24 c4 -10 1 -13 -8 -9 -8 3 -12 9 -9 14 7
12 11 11 17 -5z m-934 -17 c-15 -9 -32 -2 -24 11 3 5 13 6 21 3 12 -4 13 -8 3
-14z m2135 -8 c-2 -3 -12 3 -22 13 -16 17 -16 18 5 5 12 -7 20 -15 17 -18z
m-2589 -21 c3 -5 1 -10 -4 -10 -6 0 -11 5 -11 10 0 6 2 10 4 10 3 0 8 -4 11
-10z m875 2 c0 -5 -7 -9 -15 -9 -8 0 -12 4 -9 9 3 4 9 8 15 8 5 0 9 -4 9 -8z
m-1970 -6 c0 -2 -7 -7 -16 -10 -8 -3 -12 -2 -9 4 6 10 25 14 25 6z m2385 -6
c-3 -5 -1 -10 5 -10 6 0 8 -5 4 -11 -4 -8 -9 -7 -15 2 -7 12 -3 29 7 29 3 0 2
-4 -1 -10z m-2345 -35 c0 -12 -19 -12 -23 0 -4 9 -1 12 9 8 7 -3 14 -7 14 -8z
m3555 -14 c-3 -6 -11 -11 -16 -11 -5 0 -4 6 3 14 14 16 24 13 13 -3z m-2021 0
c4 -5 -3 -7 -14 -4 -23 6 -26 13 -6 13 8 0 17 -4 20 -9z m-1482 -33 c-8 -8 -6
-16 10 -30 12 -10 19 -20 16 -23 -3 -3 -17 6 -31 19 -25 23 -26 26 -9 35 23
14 29 14 14 -1z m1457 -20 c13 -21 13 -22 -2 -10 -10 9 -17 10 -22 2 -3 -5 -1
-10 4 -10 16 0 13 -17 -4 -23 -8 -4 -17 -1 -21 5 -4 7 -3 8 5 4 8 -5 10 0 7
17 -7 42 11 50 33 15z m31 16 c0 -8 -19 -13 -24 -6 -3 5 1 9 9 9 8 0 15 -2 15
-3z m393 -60 c-6 -17 -14 -18 -12 -1 3 23 -1 38 -9 33 -4 -2 -9 5 -9 17 -2 18
0 18 17 -7 10 -16 16 -35 13 -42z m1502 6 c10 -11 16 -20 13 -20 -3 0 -13 9
-23 20 -10 11 -16 20 -13 20 3 0 13 -9 23 -20z m-3065 6 c0 -2 -7 -7 -16 -10
-8 -3 -12 -2 -9 4 6 10 25 14 25 6z m2945 -15 c3 -5 2 -12 -3 -15 -5 -3 -9 1
-9 9 0 17 3 19 12 6z m-3095 -5 c0 -2 -7 -7 -16 -10 -8 -3 -12 -2 -9 4 6 10
25 14 25 6z m1784 -24 c2 -4 -5 -9 -17 -9 -17 -2 -19 0 -7 7 18 12 18 12 24 2z
m-1350 -30 c3 -5 -1 -9 -9 -9 -8 0 -12 4 -9 9 3 4 7 8 9 8 2 0 6 -4 9 -8z
m2196 -14 c0 -6 -6 -5 -15 2 -8 7 -15 14 -15 16 0 2 7 1 15 -2 8 -4 15 -11 15
-16z m-2150 -12 c0 -3 -4 -8 -10 -11 -5 -3 -10 -1 -10 4 0 6 5 11 10 11 6 0
10 -2 10 -4z m1980 -57 c0 -5 -4 -9 -8 -9 -5 0 -9 7 -9 15 0 8 4 12 9 9 4 -3
8 -9 8 -15z m-1604 -121 c3 -4 -1 -5 -10 -4 -8 1 -18 5 -22 8 -3 4 1 5 10 4 8
-1 18 -5 22 -8z m52 -62 c-7 -8 -17 -12 -22 -9 -4 3 -2 9 5 14 22 13 31 11 17
-5z m1112 -38 c0 -4 -6 -8 -14 -8 -8 0 -17 4 -20 8 -2 4 4 8 15 8 10 0 19 -4
19 -8z m-927 -43 c-3 -9 -8 -14 -10 -11 -3 3 -2 9 2 15 9 16 15 13 8 -4z m782
-35 c-3 -5 -12 -10 -18 -10 -7 0 -6 4 3 10 19 12 23 12 15 0z m-98 -149 c0
-11 -4 -18 -8 -15 -4 2 -12 -4 -18 -13 -9 -16 -10 -16 -8 4 0 12 5 19 9 17 5
-3 11 2 14 10 8 22 13 20 11 -3z m-483 -77 c3 -8 2 -12 -4 -9 -6 3 -10 10 -10
16 0 14 7 11 14 -7z m70 -34 c-6 -6 -10 -3 -10 10 0 13 4 16 10 10 7 -7 7 -13
0 -20z m31 20 c3 -5 1 -10 -4 -10 -6 0 -11 5 -11 10 0 6 2 10 4 10 3 0 8 -4
11 -10z m222 -4 c0 -8 -6 -12 -15 -9 -11 5 -11 7 0 14 7 5 13 9 14 9 0 0 1 -6
1 -14z"/>
<path d="M2653 4645 c0 -8 4 -15 9 -15 4 0 8 4 8 9 0 6 -4 12 -8 15 -5 3 -9
-1 -9 -9z"/>
<path d="M2439 4645 c-1 -3 -2 -11 -3 -17 0 -7 -9 -13 -18 -13 -9 0 -19 -3
-23 -6 -5 -5 20 -5 47 0 4 0 6 10 5 21 -1 19 -5 26 -8 15z"/>
<path d="M2556 4637 c3 -10 9 -15 12 -12 3 3 0 11 -7 18 -10 9 -11 8 -5 -6z"/>
<path d="M2795 4579 c-4 -6 -5 -12 -2 -15 2 -3 7 2 10 11 7 17 1 20 -8 4z"/>
<path d="M2855 4520 c3 -5 8 -10 11 -10 2 0 4 5 4 10 0 6 -5 10 -11 10 -5 0
-7 -4 -4 -10z"/>
<path d="M2174 4410 c0 -13 4 -16 10 -10 7 7 7 13 0 20 -6 6 -10 3 -10 -10z"/>
<path d="M2183 4383 c-7 -2 -13 -14 -13 -24 0 -11 -4 -18 -9 -15 -4 3 -8 -5
-7 -17 1 -12 -2 -25 -7 -28 -5 -3 -2 -9 6 -12 12 -4 15 0 12 16 -3 11 3 29 12
39 9 10 13 18 8 18 -4 0 -2 7 5 15 13 16 13 16 -7 8z"/>
<path d="M2140 4259 c0 -5 5 -7 10 -4 6 3 10 8 10 11 0 2 -4 4 -10 4 -5 0 -10
-5 -10 -11z"/>
<path d="M2950 4246 c0 -2 7 -9 15 -16 13 -11 14 -10 9 4 -5 14 -24 23 -24 12z"/>
<path d="M1923 4146 c3 -7 0 -20 -6 -27 -10 -11 -9 -11 5 0 15 11 15 41 1 41
-3 0 -3 -6 0 -14z"/>
<path d="M2907 4064 c-7 -8 3 -34 13 -34 9 0 8 26 -1 35 -3 3 -8 2 -12 -1z"/>
<path d="M2817 3939 c-19 -11 -23 -29 -6 -29 5 0 7 5 3 12 -5 8 -2 9 9 5 9 -3
19 -2 22 3 8 14 -9 19 -28 9z"/>
<path d="M1420 3883 c0 -15 18 -35 23 -27 3 5 -1 15 -9 22 -8 7 -14 9 -14 5z"/>
<path d="M3987 3846 c-6 -14 -10 -16 -20 -7 -10 8 -14 7 -14 -3 0 -13 47 -16
48 -3 2 20 -8 29 -14 13z"/>
<path d="M4170 3844 c0 -16 -2 -17 -10 -4 -6 9 -10 10 -10 3 0 -19 20 -26 26
-8 4 9 4 19 0 22 -3 4 -6 -2 -6 -13z"/>
<path d="M1125 3840 c3 -5 8 -10 11 -10 2 0 4 5 4 10 0 6 -5 10 -11 10 -5 0
-7 -4 -4 -10z"/>
<path d="M1300 3836 c0 -8 4 -17 9 -20 5 -4 7 3 4 14 -6 23 -13 26 -13 6z"/>
<path d="M1324 3838 c-4 -6 -3 -8 4 -4 6 3 13 2 17 -4 8 -13 25 -3 25 13 0 7
-4 6 -10 -3 -6 -10 -10 -11 -10 -2 0 15 -16 16 -26 0z"/>
<path d="M4230 3843 c0 -1 8 -7 18 -12 13 -7 19 -6 19 2 0 7 -9 13 -19 13 -10
0 -18 -1 -18 -3z"/>
<path d="M870 3805 c-7 -9 -11 -17 -9 -20 3 -2 10 5 17 15 14 24 10 26 -8 5z"/>
<path d="M2229 3793 c-1 -5 -1 -12 0 -17 1 -5 -5 -6 -13 -3 -20 8 -32 -11 -17
-26 9 -9 10 -7 5 8 -7 18 -6 18 9 6 9 -7 17 -10 18 -5 0 5 2 17 4 27 2 9 1 17
-1 17 -2 0 -5 -3 -5 -7z"/>
<path d="M4300 3781 c0 -6 4 -13 10 -16 6 -3 7 1 4 9 -7 18 -14 21 -14 7z"/>
<path d="M839 3763 c-1 -5 -1 -12 0 -17 1 -5 -5 -6 -14 -3 -15 6 -21 -4 -8
-16 7 -8 43 21 43 35 0 10 -20 11 -21 1z"/>
<path d="M3775 3740 c-3 -5 -1 -10 4 -10 6 0 11 5 11 10 0 6 -2 10 -4 10 -3 0
-8 -4 -11 -10z"/>
<path d="M3805 3731 c7 -12 -29 -33 -39 -23 -4 3 -4 -2 0 -11 6 -17 8 -16 30
4 20 19 24 39 8 39 -3 0 -3 -4 1 -9z"/>
<path d="M4390 3680 c0 -5 5 -10 10 -10 6 0 10 5 10 10 0 6 -4 10 -10 10 -5 0
-10 -4 -10 -10z"/>
<path d="M725 3639 c-4 -6 -5 -12 -2 -15 2 -3 7 2 10 11 7 17 1 20 -8 4z"/>
<path d="M3699 3619 c-11 -8 -10 -9 5 -7 10 2 21 -3 24 -11 3 -8 0 -11 -6 -7
-6 3 -13 2 -16 -3 -8 -12 21 -8 34 5 14 14 -23 35 -41 23z"/>
<path d="M1790 3541 c0 -6 4 -12 8 -15 5 -3 9 1 9 9 0 8 -4 15 -9 15 -4 0 -8
-4 -8 -9z"/>
<path d="M1686 3483 c-6 -14 -5 -15 5 -6 7 7 10 15 7 18 -3 3 -9 -2 -12 -12z"/>
<path d="M4480 3460 c-9 -6 -10 -10 -3 -10 6 0 15 5 18 10 8 12 4 12 -15 0z"/>
<path d="M696 3408 c3 -5 10 -6 15 -3 13 9 11 12 -6 12 -8 0 -12 -4 -9 -9z"/>
<path d="M1631 3366 c-8 -10 -9 -16 -1 -21 5 -3 10 -5 11 -3 4 18 7 38 4 38
-1 0 -8 -6 -14 -14z"/>
<path d="M1660 3345 c0 -7 30 -13 34 -7 3 4 -4 9 -15 9 -10 1 -19 0 -19 -2z"/>
<path d="M4467 3286 c-4 -10 -1 -13 8 -9 8 3 12 9 9 14 -7 12 -11 11 -17 -5z"/>
<path d="M1814 3278 c-4 -7 -4 -10 1 -6 4 4 15 2 24 -5 14 -11 14 -10 2 6 -16
20 -18 21 -27 5z"/>
<path d="M3323 3265 c0 -8 4 -12 9 -9 5 3 6 10 3 15 -9 13 -12 11 -12 -6z"/>
<path d="M720 3260 c-9 -6 -10 -10 -3 -10 6 0 15 5 18 10 8 12 4 12 -15 0z"/>
<path d="M3295 3260 c3 -5 8 -10 11 -10 2 0 4 5 4 10 0 6 -5 10 -11 10 -5 0
-7 -4 -4 -10z"/>
<path d="M3217 3224 c-3 -3 -3 -13 0 -22 5 -14 3 -14 -7 -5 -10 9 -16 8 -27
-3 -21 -21 -7 -37 20 -22 12 7 26 11 30 10 4 -1 3 6 -2 17 -6 10 -7 21 -4 25
3 3 4 6 1 6 -2 0 -7 -3 -11 -6z m-7 -38 c0 -2 -7 -7 -16 -10 -8 -3 -12 -2 -9
4 6 10 25 14 25 6z"/>
<path d="M4390 3216 c0 -2 8 -10 18 -17 15 -13 16 -12 3 4 -13 16 -21 21 -21
13z"/>
<path d="M750 3199 c0 -5 5 -7 10 -4 6 3 10 8 10 11 0 2 -4 4 -10 4 -5 0 -10
-5 -10 -11z"/>
<path d="M4375 3160 c3 -5 8 -10 11 -10 2 0 4 5 4 10 0 6 -5 10 -11 10 -5 0
-7 -4 -4 -10z"/>
<path d="M3110 3146 c0 -2 7 -6 15 -10 8 -3 15 -1 15 4 0 6 -7 10 -15 10 -8 0
-15 -2 -15 -4z"/>
<path d="M2057 3119 c7 -7 15 -10 18 -7 3 3 -2 9 -12 12 -14 6 -15 5 -6 -5z"/>
<path d="M963 3076 c-10 -11 -9 -15 3 -20 8 -3 13 -10 10 -14 -3 -5 1 -9 9 -9
19 0 19 13 0 21 -8 3 -12 12 -9 21 7 18 3 19 -13 1z"/>
<path d="M3009 3073 c-13 -15 -12 -15 9 -4 23 12 28 21 13 21 -5 0 -15 -7 -22
-17z"/>
<path d="M1180 3055 c-7 -9 -10 -18 -6 -22 3 -3 6 -1 6 5 0 7 5 12 11 12 5 0
7 -4 4 -10 -3 -5 -2 -10 3 -10 12 0 23 26 15 34 -10 10 -20 7 -33 -9z"/>
<path d="M2916 3041 c-3 -5 1 -11 9 -14 9 -4 12 -1 8 9 -6 16 -10 17 -17 5z"/>
<path d="M3835 3040 c-4 -6 -12 -9 -19 -8 -6 2 -24 -7 -39 -18 -23 -19 -25
-23 -10 -28 10 -4 14 -4 10 0 -4 4 0 15 9 25 13 15 21 16 38 7 11 -6 18 -7 14
-3 -4 5 -3 14 3 22 6 7 9 13 6 13 -3 0 -9 -5 -12 -10z"/>
<path d="M3935 3041 c-3 -5 0 -13 6 -17 7 -4 9 -3 5 4 -3 5 0 13 6 15 9 4 10
6 1 6 -6 1 -14 -3 -18 -8z"/>
<path d="M2877 3029 c7 -7 15 -10 18 -7 3 3 -2 9 -12 12 -14 6 -15 5 -6 -5z"/>
<path d="M2226 3013 c-10 -25 9 -37 25 -16 13 16 12 17 -3 4 -20 -15 -25 -2
-6 17 8 8 8 12 1 12 -6 0 -14 -8 -17 -17z"/>
<path d="M2860 2979 c0 -5 5 -7 10 -4 6 3 10 8 10 11 0 2 -4 4 -10 4 -5 0 -10
-5 -10 -11z"/>
<path d="M2685 2971 c-3 -5 -2 -12 3 -15 5 -3 9 1 9 9 0 17 -3 19 -12 6z"/>
<path d="M1464 2942 c4 -7 3 -12 -3 -12 -5 0 -9 -9 -8 -20 1 -17 12 -19 12 -2
0 4 4 12 8 19 4 6 2 15 -4 19 -8 4 -9 3 -5 -4z"/>
<path d="M1620 2816 c0 -2 7 -7 16 -10 8 -3 12 -2 9 4 -6 10 -25 14 -25 6z"/>
<path d="M3413 2798 c-15 -20 -25 -38 -20 -38 3 0 12 11 21 25 17 26 16 35 -1
13z"/>
<path d="M1704 2789 c-4 -7 -3 -9 4 -5 5 3 13 0 15 -6 4 -9 6 -10 6 -1 1 17
-16 25 -25 12z"/>
<path d="M3435 2780 c3 -5 8 -10 11 -10 2 0 4 5 4 10 0 6 -5 10 -11 10 -5 0
-7 -4 -4 -10z"/>
<path d="M1760 2745 c-9 -10 -9 -15 -1 -15 6 0 11 6 11 13 0 8 4 7 10 -3 6 -9
10 -10 10 -3 0 19 -17 24 -30 8z"/>
<path d="M3329 2758 c-9 -31 -6 -37 14 -27 32 17 35 22 8 14 -16 -5 -21 -4
-17 4 4 6 5 11 2 11 -3 0 -6 -1 -7 -2z"/>
<path d="M3196 2687 c-16 -12 -16 -15 -3 -26 13 -10 16 -8 22 9 9 28 3 33 -19
17z"/>
<path d="M1915 2680 c3 -5 1 -10 -4 -10 -6 0 -11 -5 -11 -11 0 -8 4 -8 13 -1
14 11 41 -10 29 -24 -4 -4 -1 -4 6 0 11 6 8 13 -9 32 -23 25 -35 32 -24 14z"/>
<path d="M1970 2638 c0 -9 5 -20 10 -23 13 -8 13 5 0 25 -8 13 -10 13 -10 -2z"/>
<path d="M3135 2640 c-3 -5 -1 -10 4 -10 6 0 11 5 11 10 0 6 -2 10 -4 10 -3 0
-8 -4 -11 -10z"/>
<path d="M3106 2631 c-3 -5 1 -11 9 -14 9 -4 12 -1 8 9 -6 16 -10 17 -17 5z"/>
<path d="M3053 2590 c-1 -11 2 -18 8 -15 11 7 12 35 1 35 -4 0 -8 -9 -9 -20z"/>
<path d="M2054 2586 c13 -11 15 -16 6 -16 -31 0 19 -20 57 -22 7 -1 15 -10 19
-20 3 -10 13 -18 22 -17 11 0 12 2 4 6 -6 2 -9 10 -5 16 3 7 3 9 -2 5 -5 -5
-15 1 -22 12 -8 11 -19 18 -24 14 -6 -3 -18 1 -27 8 -9 8 -24 18 -32 22 -8 4
-6 0 4 -8z"/>
<path d="M3019 2578 c-6 -12 -4 -46 2 -42 4 2 5 12 2 22 -6 15 -5 16 13 2 18
-14 18 -14 5 3 -13 16 -19 20 -22 15z"/>
<path d="M2976 2551 c-4 -5 -2 -12 3 -15 5 -4 12 -2 15 3 4 5 2 12 -3 15 -5 4
-12 2 -15 -3z"/>
<path d="M2947 2485 c3 -8 9 -12 14 -9 12 7 11 11 -5 17 -10 4 -13 1 -9 -8z"/>
<path d="M2950 2430 c0 -5 5 -10 11 -10 5 0 7 5 4 10 -3 6 -8 10 -11 10 -2 0
-4 -4 -4 -10z"/>
<path d="M2155 2421 c-3 -5 -2 -12 3 -15 5 -3 9 1 9 9 0 17 -3 19 -12 6z"/>
<path d="M2883 2364 c0 -16 13 -19 21 -5 3 5 0 11 -7 14 -8 3 -14 -1 -14 -9z"/>
<path d="M2219 2343 c-13 -16 -12 -17 4 -4 9 7 17 15 17 17 0 8 -8 3 -21 -13z"/>
<path d="M2787 2103 c-8 -17 -1 -37 13 -40 13 -4 13 -3 0 6 -13 10 -13 11 0
11 12 0 13 2 1 9 -11 7 -11 9 0 14 9 3 10 6 2 6 -6 1 -14 -2 -16 -6z"/>
<path d="M1060 2084 c0 -16 -2 -17 -10 -4 -6 9 -10 10 -10 3 0 -19 20 -26 26
-8 4 9 4 19 0 22 -3 4 -6 -2 -6 -13z"/>
<path d="M4029 2083 c-13 -16 -12 -17 4 -4 16 13 21 21 13 21 -2 0 -10 -8 -17
-17z"/>
<path d="M1270 2081 c0 -6 4 -13 10 -16 6 -3 7 1 4 9 -7 18 -14 21 -14 7z"/>
<path d="M2780 2040 c0 -5 9 -14 20 -20 11 -6 20 -9 20 -8 0 2 -9 11 -20 21
-11 9 -20 13 -20 7z"/>
<path d="M880 2015 c5 -7 7 -15 3 -19 -4 -4 1 -4 12 0 11 5 14 9 7 12 -7 2
-10 7 -8 11 3 4 -1 8 -9 8 -10 0 -12 -4 -5 -12z"/>
<path d="M4436 1995 c-9 -26 -7 -32 5 -12 6 10 9 21 6 23 -2 3 -7 -2 -11 -11z"/>
<path d="M4390 1986 c0 -2 7 -9 15 -16 13 -11 14 -10 9 4 -5 14 -24 23 -24 12z"/>
<path d="M795 1970 c3 -5 8 -10 11 -10 2 0 4 5 4 10 0 6 -5 10 -11 10 -5 0 -7
-4 -4 -10z"/>
<path d="M3855 1961 c-3 -5 -2 -12 3 -15 5 -3 9 1 9 9 0 17 -3 19 -12 6z"/>
<path d="M3750 1839 c0 -5 5 -7 10 -4 6 3 10 8 10 11 0 2 -4 4 -10 4 -5 0 -10
-5 -10 -11z"/>
<path d="M3775 1826 c-17 -12 -17 -13 3 -11 26 2 37 11 24 19 -5 3 -17 -1 -27
-8z"/>
<path d="M2300 1828 c0 -2 9 -11 20 -21 11 -9 20 -13 20 -7 0 5 -9 14 -20 20
-11 6 -20 9 -20 8z"/>
<path d="M1501 1741 c-8 -5 -9 -11 -3 -15 5 -3 12 1 16 9 6 17 6 18 -13 6z"/>
<path d="M3655 1740 c-3 -5 -1 -10 4 -10 6 0 11 5 11 10 0 6 -2 10 -4 10 -3 0
-8 -4 -11 -10z"/>
<path d="M1531 1714 c0 -11 3 -14 6 -6 3 7 2 16 -1 19 -3 4 -6 -2 -5 -13z"/>
<path d="M695 1700 c-3 -5 -2 -10 4 -10 5 0 13 5 16 10 3 6 2 10 -4 10 -5 0
-13 -4 -16 -10z"/>
<path d="M1505 1700 c3 -5 8 -10 11 -10 2 0 4 5 4 10 0 6 -5 10 -11 10 -5 0
-7 -4 -4 -10z"/>
<path d="M1610 1680 c0 -5 5 -10 11 -10 5 0 7 5 4 10 -3 6 -8 10 -11 10 -2 0
-4 -4 -4 -10z"/>
<path d="M1675 1641 c-3 -5 -2 -12 3 -15 5 -3 9 1 9 9 0 17 -3 19 -12 6z"/>
<path d="M3475 1630 c-3 -6 1 -7 9 -4 18 7 21 14 7 14 -6 0 -13 -4 -16 -10z"/>
<path d="M3450 1616 c14 -18 13 -18 -10 -12 -14 4 -20 4 -15 -1 6 -5 13 -12
16 -16 3 -4 11 -1 18 6 9 11 7 17 -6 28 -17 13 -17 13 -3 -5z"/>
<path d="M1674 1606 c14 -11 24 -13 37 -5 11 5 19 12 19 15 0 3 -8 1 -17 -5
-11 -6 -25 -6 -38 0 -19 10 -19 10 -1 -5z"/>
<path d="M2787 1589 c7 -7 15 -10 18 -7 3 3 -2 9 -12 12 -14 6 -15 5 -6 -5z"/>
<path d="M1777 1561 c-4 -17 -3 -21 5 -13 5 5 8 16 6 23 -3 8 -7 3 -11 -10z"/>
<path d="M2780 1560 c0 -5 9 -14 20 -20 11 -6 20 -9 20 -8 0 2 -9 11 -20 21
-11 9 -20 13 -20 7z"/>
<path d="M3069 1443 c-13 -16 -12 -17 4 -4 16 13 21 21 13 21 -2 0 -10 -8 -17
-17z"/>
<path d="M3026 1398 c3 -4 9 -8 15 -8 5 0 9 4 9 8 0 5 -7 9 -15 9 -8 0 -12 -4
-9 -9z"/>
<path d="M4404 1368 c-4 -6 -3 -8 4 -4 5 3 13 0 15 -6 3 -8 6 -6 6 5 1 19 -14
23 -25 5z"/>
<path d="M2231 1336 c-10 -12 -7 -18 19 -31 32 -17 47 -15 36 4 -4 6 -14 7
-24 4 -14 -6 -15 -4 -5 9 12 14 8 28 -7 28 -4 0 -13 -6 -19 -14z m24 -6 c-3
-5 -11 -10 -16 -10 -6 0 -7 5 -4 10 3 6 11 10 16 10 6 0 7 -4 4 -10z"/>
<path d="M3970 1321 c0 -5 7 -12 16 -15 14 -5 15 -4 4 9 -14 17 -20 19 -20 6z"/>
<path d="M940 1295 c-7 -9 -20 -13 -29 -10 -12 5 -13 3 -4 -6 9 -9 18 -7 39
10 15 11 22 21 17 21 -6 0 -16 -7 -23 -15z"/>
<path d="M2864 1299 c-8 -14 14 -19 25 -6 8 10 7 14 -5 14 -8 0 -17 -4 -20 -8z"/>
<path d="M4090 1285 c0 -5 4 -16 9 -23 6 -11 10 -10 15 4 3 9 4 19 1 22 -3 3
-5 -1 -5 -9 0 -11 -2 -11 -10 1 -5 8 -10 11 -10 5z"/>
<path d="M3725 1260 c-3 -5 -2 -18 4 -27 7 -14 9 -12 8 10 -2 30 -3 31 -12 17z"/>
<path d="M1428 1238 c4 -16 2 -19 -8 -13 -9 5 -11 4 -6 -3 5 -9 13 -9 27 -2
24 13 24 17 0 29 -16 9 -18 8 -13 -11z"/>
<path d="M3750 1249 c0 -5 5 -7 10 -4 6 3 10 8 10 11 0 2 -4 4 -10 4 -5 0 -10
-5 -10 -11z"/>
<path d="M1487 1193 c3 -7 6 -13 8 -13 2 0 5 6 8 13 3 8 -1 14 -8 14 -7 0 -11
-6 -8 -14z"/>
<path d="M3565 1170 c-3 -5 -1 -10 4 -10 6 0 11 5 11 10 0 6 -2 10 -4 10 -3 0
-8 -4 -11 -10z"/>
<path d="M1623 1129 c9 -6 15 -14 12 -20 -3 -5 1 -6 9 -3 9 3 16 10 16 16 0 5
-4 7 -9 3 -5 -3 -12 -1 -16 5 -3 5 -12 10 -18 10 -7 0 -4 -5 6 -11z"/>
<path d="M1670 1120 c0 -5 5 -10 11 -10 5 0 7 5 4 10 -3 6 -8 10 -11 10 -2 0
-4 -4 -4 -10z"/>
<path d="M1726 1062 c-3 -5 1 -9 9 -9 8 0 12 4 9 9 -3 4 -7 8 -9 8 -2 0 -6 -4
-9 -8z"/>
<path d="M1899 1008 c-8 -27 -6 -38 5 -29 7 6 17 7 22 3 4 -4 2 1 -5 11 -12
16 -20 21 -22 15z"/>
<path d="M1982 947 c-8 -10 -6 -13 11 -14 12 0 16 1 9 4 -6 3 -10 9 -6 14 8
14 -2 11 -14 -4z"/>
<path d="M2180 795 c-11 -13 -10 -14 4 -9 9 3 16 10 16 15 0 13 -6 11 -20 -6z"/>
<path d="M2210 800 c0 -5 5 -10 11 -10 5 0 7 5 4 10 -3 6 -8 10 -11 10 -2 0
-4 -4 -4 -10z"/>
<path d="M2203 773 c9 -2 15 -8 13 -12 -3 -4 1 -8 9 -8 11 0 12 4 4 14 -6 7
-19 12 -28 12 -13 -1 -13 -2 2 -6z"/>
<path d="M2895 740 c3 -5 8 -10 11 -10 2 0 4 5 4 10 0 6 -5 10 -11 10 -5 0 -7
-4 -4 -10z"/>
<path d="M2895 711 c-3 -5 -2 -12 3 -15 5 -3 9 1 9 9 0 17 -3 19 -12 6z"/>
<path d="M2379 603 c-13 -16 -12 -17 4 -4 16 13 21 21 13 21 -2 0 -10 -8 -17
-17z"/>
<path d="M2555 540 c-3 -6 1 -7 9 -4 18 7 21 14 7 14 -6 0 -13 -4 -16 -10z"/>
</g>
</svg>
